<svg width="25" height="24" viewBox="0 0 25 24" fill="none" xmlns="http://www.w3.org/2000/svg">
<path d="M6.25342 6C6.25342 4.34313 7.59654 3 9.25342 3H12.2534V9H9.25342C7.59654 9 6.25342 7.65686 6.25342 6Z" stroke="white"/>
<path d="M12.2534 3H15.2534C16.9103 3 18.2534 4.34313 18.2534 6C18.2534 7.65686 16.9103 9 15.2534 9H12.2534V3Z" stroke="white"/>
<path d="M6.25342 12C6.25342 10.3431 7.59654 9 9.25342 9H12.2534V15H9.25342C7.59654 15 6.25342 13.6569 6.25342 12Z" stroke="white"/>
<path d="M18.2534 12C18.2534 10.3432 16.9103 9 15.2534 9C13.5965 9 12.2534 10.3432 12.2534 12C12.2534 13.6568 13.5965 15 15.2534 15C16.9103 15 18.2534 13.6568 18.2534 12Z" stroke="white"/>
<path d="M6.25342 18C6.25342 16.3431 7.59654 15 9.25342 15H12.2534V18C12.2534 19.6569 10.9103 21 9.25342 21C7.59654 21 6.25342 19.6569 6.25342 18Z" stroke="white"/>
</svg>
