<svg width="391" height="137" viewBox="0 0 391 137" fill="none" xmlns="http://www.w3.org/2000/svg">
<path fill-rule="evenodd" clip-rule="evenodd" d="M131.113 118.657C130.793 119.16 130.484 119.542 130.186 119.804C130.137 119.171 129.915 118.61 129.519 118.123C129.08 117.599 128.821 117.081 128.742 116.57C128.529 115.869 128.546 115.051 128.792 114.116L129.454 111.855C129.564 111.209 129.69 110.522 129.833 109.794C129.976 109.066 130.243 108.13 130.632 106.985C130.797 106.534 130.887 106.149 130.902 105.829C130.917 105.509 131.007 105.124 131.171 104.673C131.336 103.704 131.497 102.696 131.655 101.648C131.813 100.601 131.929 99.5165 132.002 98.3956C131.984 97.6403 132.072 96.7174 132.267 95.6271C132.431 94.6585 132.489 93.8575 132.44 93.224C132.428 93.0656 132.379 92.9499 132.294 92.8768C132.209 92.8037 132.209 92.2859 132.294 91.3235C132.303 90.9245 132.294 90.5468 132.266 90.1904C132.279 89.831 132.253 89.4945 132.189 89.1808C132.1 88.5503 132.111 87.9123 132.221 87.2666C132.278 86.9833 132.316 86.7016 132.335 86.4214L132.389 85.5807L132.444 84.7401C132.462 84.4599 132.5 84.1782 132.558 83.8949C132.567 83.4959 132.657 83.1106 132.828 82.7391C132.998 82.3675 133.088 81.9822 133.097 81.5832C133.252 81.0136 133.394 80.2659 133.522 79.34C133.57 78.938 133.621 78.5557 133.672 78.1933L133.828 77.1059C133.968 76.3384 134.129 75.5891 134.311 74.8582C134.531 74.0845 134.751 73.3307 134.974 72.5967C135.235 71.8596 135.458 71.1256 135.64 70.3946C135.82 69.624 135.98 68.8549 136.12 68.0874C137.063 66.8995 137.873 65.5228 138.549 63.9573C139.14 63.3542 139.625 62.6795 140.006 61.9333C140.386 61.1871 140.747 60.4424 141.088 59.6992C142.285 58.691 143.012 57.5396 143.271 56.2452C143.566 54.9081 144.419 53.8268 145.828 53.0013C146.48 52.1546 147.138 51.387 147.801 50.6986C148.502 49.9676 149.071 49.0874 149.509 48.0579C150.587 47.0588 151.462 46.0156 152.135 44.9283C152.488 44.3435 152.843 43.7784 153.199 43.2332L154.377 41.4697C154.523 41.2991 154.645 41.0707 154.743 40.7844C154.837 40.4585 154.992 40.1478 155.208 39.8524C155.61 39.3833 155.93 38.8807 156.167 38.3447L156.989 36.6086C157.233 36.1517 157.496 35.6933 157.779 35.2334C158.063 34.7734 158.347 34.3333 158.633 33.913C158.917 33.4531 159.201 33.0129 159.487 32.5926C159.81 32.1296 160.113 31.6682 160.396 31.2083C160.774 30.4225 161.157 29.7158 161.547 29.0884C162.007 28.3361 162.393 27.669 162.707 27.0873C162.81 26.8802 162.926 26.5725 163.054 26.1644C163.151 25.8781 163.383 25.5217 163.748 25.0953L163.958 24.7207C164.028 24.5958 164.097 24.4511 164.164 24.2866C164.371 23.8724 164.546 23.5602 164.689 23.35L165.155 22.418C165.258 22.2109 165.416 21.9398 165.629 21.6048C165.751 21.1175 165.835 20.653 165.881 20.2114C165.926 19.7697 166.013 19.3448 166.141 18.9367C166.269 18.5286 166.398 18.1402 166.529 17.7717L166.913 16.5473C167.199 15.6092 167.337 14.8219 167.328 14.1853C167.556 13.5305 167.73 12.9396 167.849 12.4127C167.903 12.0898 167.978 11.7654 168.072 11.4395C168.206 11.1106 168.339 10.7619 168.47 10.3933L168.771 9.65318C168.871 9.40647 168.951 9.14149 169.008 8.85824C169.066 8.57498 169.127 8.33132 169.191 8.12725C169.291 7.88054 169.374 7.65515 169.438 7.45109C169.742 6.23278 169.856 5.1287 169.78 4.13884C169.707 3.18858 169.181 2.05409 168.204 0.735352C167.906 0.997303 167.702 1.19224 167.592 1.32017C167.409 1.53338 166.919 1.63088 166.121 1.61265C165.305 1.87464 164.607 2.36656 164.025 3.08844C163.444 3.81031 162.824 4.29614 162.167 4.54593C161.813 5.13073 161.38 5.70183 160.865 6.25923C160.35 6.81663 159.871 7.31159 159.426 7.74411C158.951 8.29847 158.537 8.60916 158.184 8.67618C158.011 9.00818 157.811 9.26251 157.586 9.43917C157.321 9.61889 157.079 9.83667 156.86 10.0925C156.488 10.4398 156.119 10.8068 155.75 11.1936C155.418 11.5378 155.108 11.9003 154.819 12.281C154.529 12.6617 154.22 13.044 153.891 13.4278L152.896 14.4603C152.013 15.4046 151.196 16.4234 150.444 17.5169C149.582 18.7383 148.682 19.7236 147.745 20.4729C147.053 21.8405 146.034 23.0741 144.685 24.1737C143.805 25.6753 142.974 27.2926 142.191 29.0257L141.077 31.6207L139.954 34.0969C139.777 34.3893 139.621 34.6802 139.484 34.9696C139.343 35.2193 139.205 35.4889 139.068 35.7782L138.657 36.6463C138.557 36.893 138.438 37.161 138.301 37.4504L137.232 39.8627C136.858 40.6881 136.532 41.8881 136.255 43.4628C136.136 43.9897 135.94 44.5425 135.666 45.1212L135.255 45.9892C135.155 46.236 135.056 46.5025 134.958 46.7888C134.703 47.605 134.445 48.4015 134.187 49.1782L133.41 51.5082L132.634 53.8382C132.372 54.5753 132.112 55.3322 131.853 56.1089C131.22 57.1932 130.815 58.1404 130.638 58.9506C130.578 59.1943 130.553 59.3953 130.565 59.5537C130.578 59.712 130.556 59.9526 130.502 60.2755C130.444 60.5588 130.366 60.8435 130.269 61.1298C130.211 61.4131 130.113 61.6994 129.976 61.9887C129.772 62.4426 129.561 63.0563 129.342 63.8299C129.153 64.4817 128.934 65.2554 128.684 66.1508C128.435 67.0463 128.222 67.8991 128.045 68.7093C127.594 70.0981 127.197 71.4032 126.853 72.6246C126.509 73.846 126.191 75.145 125.899 76.5217C125.735 76.9724 125.646 77.3775 125.634 77.7369C125.625 78.1359 125.433 78.7481 125.059 79.5735C124.894 80.0243 124.805 80.4096 124.789 80.7294C124.774 81.0492 124.684 81.4345 124.52 81.8853C123.978 83.1219 123.525 84.4711 123.159 85.9331C122.794 87.3951 122.441 89.0154 122.1 90.7941C121.954 91.4825 121.878 92.046 121.872 92.4845C121.832 93.0054 121.753 93.5292 121.634 94.0561C121.47 95.5425 121.287 97.0501 121.087 98.5791C120.889 100.148 120.674 101.757 120.443 103.408C119.977 106.67 119.745 109.854 119.745 112.961C119.736 113.36 119.745 113.738 119.772 114.094C119.763 114.493 119.772 114.871 119.8 115.227C119.864 116.059 119.842 116.817 119.736 117.502C119.733 117.98 119.637 118.545 119.448 119.197C119.26 119.849 119.161 120.374 119.152 120.773C119.063 121.696 119.059 122.672 119.138 123.702C119.172 124.137 119.225 124.571 119.298 125.004C119.335 125.479 119.389 125.933 119.462 126.365C119.484 126.642 119.549 126.976 119.659 127.366L119.814 127.832C119.866 127.987 119.919 128.162 119.974 128.357C120.199 129.216 120.396 129.958 120.563 130.582C120.731 131.206 120.997 131.823 121.363 132.432C121.874 132.871 122.196 133.165 122.326 133.314C122.543 133.536 122.961 133.544 123.582 133.337C124.021 133.861 124.694 134.068 125.601 133.958C126.508 133.848 127.395 133.72 128.259 133.574C128.676 133.303 129.033 133.017 129.328 132.715C129.587 132.456 130.025 132.203 130.643 131.957C131.009 131.53 131.394 131.102 131.799 130.673C132.203 130.243 132.674 129.888 133.21 129.608C135.231 126.903 137.151 124.167 138.968 121.398C140.786 118.629 142.495 115.749 144.097 112.758C144.477 112.012 144.827 111.129 145.147 110.109C145.311 109.658 145.473 109.167 145.631 108.638C145.792 108.147 145.972 107.635 146.17 107.102C146.669 105.829 147.054 104.625 147.325 103.489C147.474 102.84 147.625 102.211 147.777 101.602L148.243 99.8931L148.878 97.2753C149.121 96.3006 149.217 95.4767 149.165 94.8036L149.101 93.9722C149.083 93.7346 149.043 93.4788 148.982 93.2046C148.921 92.9305 148.882 92.6747 148.864 92.4371L148.809 91.7244C148.827 90.9265 148.943 90.1011 149.156 89.2482C149.341 88.5568 149.533 87.6858 149.731 86.635C149.877 85.9466 149.945 85.2842 149.936 84.6476C149.927 84.0111 150.029 83.2664 150.242 82.4136C150.519 81.8745 150.7 81.3826 150.786 80.9379C150.846 80.6942 150.888 80.4521 150.909 80.2115L151.082 79.3617C151.219 78.5546 151.391 77.9439 151.598 77.5297C151.836 76.9936 151.795 76.2002 151.475 75.1495C151.249 74.2906 151.297 73.6099 151.616 73.1073C151.936 72.6047 152.358 72.1341 152.881 71.6955C153.977 70.934 155.128 70.3674 156.334 69.9958C157.5 69.6272 158.913 68.8413 160.572 67.6381C160.919 67.4919 161.268 67.3655 161.618 67.2589C161.965 67.1127 162.314 66.9862 162.664 66.8796L164.929 66.048C165.24 65.9444 165.57 65.8393 165.92 65.7327C166.31 65.623 166.701 65.5331 167.094 65.4631C167.759 64.9281 168.436 64.5314 169.122 64.2728C168.92 64.6237 168.722 65.0232 168.527 65.4713L167.952 67.3079C167.745 67.7221 167.588 68.013 167.481 68.1805L167.002 68.9344C166.938 69.1384 166.927 69.2587 166.97 69.2953C167.055 69.3684 166.871 69.8207 166.417 70.6522C166.122 71.4715 165.971 72.3593 165.965 73.3157C165.959 74.272 165.809 75.1599 165.513 75.9792C165.221 76.8381 165.089 77.7046 165.116 78.5787C165.15 79.5321 165.103 80.4717 164.975 81.3976C164.938 81.958 164.979 82.4925 165.098 83.0011C165.217 83.5098 165.331 83.959 165.441 84.3488L165.916 85.8656C166.074 86.3712 166.214 86.8981 166.336 87.4463C166.574 88.4635 167.164 89.1549 168.108 89.5203C168.559 90.2025 169.074 90.6807 169.652 90.9547C170.231 91.2288 171.056 91.6034 172.128 92.0784C173.087 92.6418 174.454 92.8154 176.229 92.599C176.573 92.4132 176.99 92.1421 177.48 91.7857C178.095 91.4994 178.806 91.1658 179.613 90.7851C180.42 90.4043 181.009 90.0403 181.38 89.6931C181.752 89.3458 182.009 89.0671 182.152 88.857C182.295 88.6468 182.556 88.4077 182.933 88.1396C183.682 87.5244 184.471 86.906 185.299 86.2846C186.124 85.6237 187.01 84.9779 187.957 84.3474C189.771 83.0924 191.467 81.5878 193.044 79.8333C193.561 79.4612 194.004 79.0382 194.372 78.5645L194.287 78.9018C194.181 79.5871 194.274 80.2769 194.566 80.9714C194.709 81.279 194.855 81.6262 195.005 82.013C195.111 82.3632 195.219 82.7333 195.329 83.1231C195.515 83.4673 195.626 83.8769 195.663 84.352C195.699 84.8272 195.81 85.2368 195.996 85.581C196.173 85.8063 196.39 86.0485 196.649 86.3073C196.908 86.5662 197.123 86.7687 197.293 86.9149C197.476 87.2195 197.651 87.425 197.818 87.5316C197.986 87.6382 198.194 87.7616 198.444 87.9016C199.418 88.1452 200.499 88.2213 201.687 88.1299C202.003 88.1055 202.242 88.107 202.404 88.1344C202.565 88.1618 202.762 88.1268 202.993 88.0293C203.31 88.0049 203.757 87.8709 204.336 87.6272L205.898 86.9692C206.975 86.4879 208.126 85.9213 209.35 85.2694C210.574 84.6176 211.746 83.8104 212.867 82.8479C213.701 82.3057 214.426 81.6325 215.041 80.8284C215.656 80.0243 216.246 79.1623 216.813 78.2425C217.552 77.5084 218.266 76.6967 218.954 75.8073C219.679 74.8753 220.393 74.0635 221.096 73.3721C221.309 73.0371 221.49 72.8041 221.64 72.6731C221.789 72.5421 221.973 72.3487 222.192 72.0928C222.265 72.0076 222.451 71.8339 222.749 71.572C222.975 71.3953 223.157 71.1821 223.297 70.9324C223.553 70.6339 223.746 70.3003 223.877 69.9318C224.008 69.5633 224.284 69.2632 224.704 69.0317C224.561 69.7597 224.366 70.5912 224.12 71.5262C223.87 72.4217 223.57 73.4405 223.22 74.5827C222.87 75.7248 222.535 76.8061 222.215 77.8264C221.932 78.8041 221.666 79.7407 221.416 80.6361C221.234 80.8494 221.113 81.0976 221.056 81.3808C220.998 81.6641 220.911 81.8301 220.795 81.8788C220.284 82.4758 219.97 82.7987 219.855 82.8474L219.626 82.9845C219.55 83.0302 219.279 83.3896 218.813 84.0627C216.201 86.335 213.633 88.6636 211.109 91.0486C208.585 93.4336 206.407 96.1703 204.574 99.2587C204.151 100.486 203.58 101.606 202.861 102.617C202.502 103.122 202.164 103.646 201.848 104.188C201.574 104.767 201.301 105.366 201.03 105.984C201.036 106.581 200.866 107.211 200.519 107.875C200.382 108.165 200.227 108.475 200.053 108.807L199.651 109.794C199.289 110.778 199.067 111.771 198.985 112.773C198.893 113.656 198.589 114.616 198.071 115.651C197.761 116.79 197.466 117.869 197.186 118.886C196.906 119.903 196.571 120.984 196.181 122.13L195.24 124.652C194.979 125.389 194.79 126.299 194.674 127.384C194.51 128.352 194.467 129.351 194.547 130.381C194.574 130.737 194.767 131.18 195.127 131.71C195.443 132.203 195.487 132.777 195.259 133.432C195.478 133.694 195.62 133.982 195.684 134.296C195.742 134.53 196.045 134.845 196.593 135.241C196.502 136.125 196.897 136.612 197.78 136.703C198.663 136.795 199.492 136.691 200.265 136.392C200.6 136.606 200.901 136.642 201.169 136.502L202.147 136.009C202.804 135.241 203.465 134.513 204.129 133.825C204.792 133.136 205.538 132.481 206.366 131.86C207.152 130.684 208.061 129.559 209.093 128.484C210.161 127.366 211.116 126.317 211.956 125.336C212.2 124.879 212.486 124.459 212.815 124.075C213.399 123.392 214.025 122.727 214.692 122.078C215.358 121.429 215.856 120.654 216.185 119.753C216.818 119.186 217.258 118.435 217.505 117.5C217.751 116.565 218.155 115.857 218.715 115.376C219.044 114.474 219.333 113.576 219.582 112.68C219.872 111.782 220.121 110.886 220.331 109.994C220.745 108.13 221.333 106.452 222.094 104.959C222.258 103.991 222.442 103.021 222.646 102.049L223.386 99.2438L224.925 93.629C225.464 91.835 225.861 90.0121 226.116 88.1603C226.378 86.3877 226.772 84.5252 227.299 82.5728C228.407 81.9697 229.381 81.1778 230.222 80.197C231.026 79.2589 232.085 78.54 233.4 78.0404C233.866 77.3673 234.463 76.8434 235.191 76.4687C235.882 76.1367 236.582 75.4057 237.291 74.2757C237.474 74.0624 237.643 73.9299 237.798 73.8782C237.99 73.7837 238.463 73.4685 239.219 72.9324C239.483 72.7527 239.811 72.608 240.2 72.4983C240.59 72.3886 240.917 72.2439 241.182 72.0642C241.447 71.8845 241.805 71.618 242.256 71.2647C242.594 70.9997 243.119 70.8397 243.831 70.7848C244.431 70.3005 245.229 69.801 246.224 69.2862C246.573 69.0268 246.905 68.7768 247.222 68.5363L246.895 69.4733C246.502 70.5789 246.166 71.6404 245.886 72.6577C245.447 73.6872 245.106 74.6892 244.863 75.6639C244.619 76.6385 244.233 77.5644 243.703 78.4416C243.578 79.4072 243.391 80.3376 243.141 81.2331C242.889 82.089 242.705 83.059 242.589 84.1433C243.003 84.3504 243.235 84.7707 243.283 85.4042C243.743 85.6874 244.153 85.8351 244.512 85.8473L245.951 85.9157C246.63 85.9431 247.217 85.8182 247.713 85.541L248.517 85.1206L249.211 84.8282C249.4 84.6941 249.709 84.5708 250.139 84.4581L250.956 84.2159C251.376 83.9844 251.731 83.6783 252.02 83.2975L252.513 82.7218C252.656 82.5117 252.801 82.3213 252.947 82.1507L253.988 80.9354C254.354 80.509 254.543 80.1161 254.555 79.7567C254.804 79.379 255.055 79.0211 255.308 78.683C255.597 78.3023 255.868 77.9429 256.121 77.6048C256.736 76.8007 257.255 76.0438 257.678 75.3341C257.855 75.0417 258.147 74.7006 258.555 74.3107C258.927 73.9635 259.258 73.6193 259.551 73.2781L260.811 71.807C261.286 71.2526 261.749 70.7988 262.199 70.4455L263.236 69.9474C263.62 69.7586 263.923 69.556 264.145 69.3397C264.443 69.0778 264.666 68.8615 264.812 68.691C265.067 68.3925 265.366 68.1305 265.707 67.9051L266.433 67.2517C266.731 66.9898 267.11 66.4827 267.57 65.7303C267.96 65.1029 268.47 64.4861 269.1 63.88L270.876 62.1301C271.172 61.8285 271.469 61.5468 271.767 61.2848C272.062 60.9833 272.338 60.6833 272.594 60.3848C272.889 60.0832 273.166 59.803 273.425 59.5441L274.311 58.6395C275.492 57.4333 276.655 56.2484 277.8 55.0849C278.945 53.9214 280.159 52.8918 281.444 51.9963C281.7 52.2156 281.979 52.4729 282.28 52.7683C282.581 53.0637 282.556 53.5039 282.202 54.0887C282.169 54.6887 282.097 55.3115 281.988 55.9572C281.915 56.5603 281.804 57.1862 281.655 57.8349C281.505 58.4837 281.376 59.1309 281.267 59.7766C281.154 60.3827 281.061 60.9873 280.988 61.5903C281.353 62.1995 281.354 63.235 280.988 64.697C280.66 66.1163 280.702 67.1884 281.116 67.9132C280.861 69.7651 280.949 71.4311 281.382 72.9113C281.814 74.3915 282.898 75.5427 284.634 76.3649C284.968 76.5781 285.293 76.6527 285.606 76.5887C285.92 76.5247 286.348 76.3922 286.89 76.1911C288.369 75.2408 289.697 73.864 290.872 72.0609C291.383 71.4639 291.878 70.908 292.356 70.3933C292.871 69.8359 293.369 69.3196 293.85 68.8444C294.331 68.3693 294.81 67.8743 295.288 67.3595C295.803 66.8021 296.316 66.225 296.827 65.628C298.06 65.0949 299.085 64.4385 299.901 63.6587C300.68 62.9216 301.656 62.1494 302.828 61.3422C303.041 61.0072 303.256 60.692 303.472 60.3965L304.239 59.501L305.171 58.4136C305.533 57.9476 305.949 57.3978 306.418 56.7643C306.545 57.3917 306.549 57.9491 306.427 58.4364C306.308 58.9633 306.235 59.5664 306.208 60.2456C306.217 60.3644 306.276 60.6187 306.386 61.0085C306.495 61.3984 306.558 61.6923 306.573 61.8902C306.567 62.3288 306.508 62.8512 306.395 63.4573C306.313 63.9415 306.293 64.4608 306.336 65.0152C306.519 66.3553 306.736 67.6329 306.989 68.8482C307.242 70.0634 307.493 71.2588 307.743 72.4344C307.804 72.7086 307.845 72.9842 307.866 73.2614C307.924 73.4959 307.962 73.7319 307.981 73.9695C308.014 74.405 308.462 75.0476 309.323 75.8973C309.573 76.0374 309.853 76.0557 310.164 75.9521C310.435 75.8516 310.846 76.0191 311.397 76.4546C311.674 76.4332 311.901 76.5352 312.078 76.7606C312.254 76.986 312.438 77.0515 312.63 76.957C313.178 76.8352 313.572 76.7849 313.813 76.8062C314.172 76.8184 314.746 76.5153 315.535 75.8969C316.351 75.635 316.908 75.373 317.206 75.111C317.392 74.9374 317.617 74.7607 317.882 74.581C318.147 74.4013 318.43 74.2003 318.732 73.9779C318.917 73.8043 319.083 73.6322 319.229 73.4616C319.415 73.288 319.581 73.1159 319.727 72.9454C320.056 72.5616 320.391 72.257 320.732 72.0316L321.189 71.7574C321.341 71.6661 321.495 71.5945 321.65 71.5427C322.033 71.3538 322.3 71.1939 322.449 71.0629C322.668 70.8071 322.83 70.5756 322.933 70.3685C323.037 70.1614 323.384 69.7563 323.974 69.1532C324.376 68.6841 324.585 68.2897 324.6 67.9699C324.652 67.6074 324.739 67.1825 324.86 66.6952L325.696 65.9139C325.84 65.77 326.003 65.6369 326.185 65.5146C326.201 65.9225 326.237 66.3191 326.295 66.7043C326.31 66.9023 326.293 67.2023 326.245 67.6043C326.19 67.9272 326.249 68.1815 326.423 68.3673C326.295 68.7754 326.327 69.1911 326.519 69.6145C326.747 69.9952 326.907 70.5205 326.998 71.1906C327.105 71.5408 327.21 71.8713 327.314 72.182C327.417 72.4926 327.499 72.785 327.56 73.0591C327.719 73.5647 327.943 74.1449 328.232 74.7997C328.963 76.0179 329.82 77.0671 330.803 77.9473C331.787 78.8274 332.961 79.3345 334.325 79.4684C335.062 79.7303 335.713 79.9191 336.279 80.0348C337.089 80.2114 337.823 80.4337 338.481 80.7016C340.326 80.8782 341.571 80.5035 342.217 79.5775C342.466 79.7176 342.884 79.4465 343.468 78.7642C344.321 77.9419 345.175 77.1392 346.03 76.3564C346.883 75.534 347.718 74.7528 348.537 74.0126C349.396 73.2694 350.213 72.5094 350.99 71.7327C351.763 70.9164 352.517 70.1016 353.25 69.2884C354.167 68.7797 354.84 68.2101 355.269 67.5796C355.701 66.9887 356.255 66.4283 356.931 65.8983C357.351 67.2201 357.766 68.4627 358.174 69.6261C358.582 70.7896 359.175 71.7794 359.955 72.5956C360.454 72.8758 360.881 73.2412 361.234 73.692C362.001 73.832 362.772 74.0117 363.545 74.2309C364.4 74.4837 365.277 74.4958 366.176 74.2673C366.532 74.2399 366.9 74.1119 367.281 73.8835C367.737 73.6093 368.06 73.4053 368.249 73.2712C368.745 72.994 369.31 72.5722 369.943 72.0056C370.464 71.5274 370.953 71.1512 371.409 70.8771C371.915 70.2009 372.367 69.6085 372.766 69.0998C373.164 68.5912 373.702 68.0718 374.378 67.5418C374.585 67.1276 374.837 66.7895 375.136 66.5276L376.031 65.7417C376.892 64.5203 377.714 63.5609 378.497 62.8634C379.352 62.0805 380.214 61.118 381.082 59.9758C381.197 59.9271 381.347 59.7961 381.529 59.5829C381.712 59.3697 382.202 59.0133 383 58.5138C383.566 58.1117 383.997 57.7599 384.292 57.4584C384.554 57.239 385.025 56.8842 385.703 56.3938C385.85 56.2232 386.041 56.1288 386.279 56.1105C386.516 56.0922 386.806 55.7115 387.147 54.9683C387.36 54.6332 387.634 54.3134 387.969 54.0088C388.3 53.6647 388.574 53.3448 388.791 53.0494C388.864 52.9641 388.897 52.8819 388.891 52.8027C388.882 52.6839 389.056 52.3519 389.412 51.8067C389.765 51.2219 389.995 50.5868 390.101 49.9015C390.208 49.2163 390.118 48.566 389.832 47.9508L389.338 47.7498L388.964 47.5397C388.754 47.3965 388.431 47.3417 387.996 47.3753C387.53 48.0484 386.997 48.6271 386.397 49.1114C385.797 49.5957 385.265 50.1745 384.799 50.8476C383.919 51.3136 383.337 51.7766 383.054 52.2365C382.698 52.7818 382.241 53.3148 381.684 53.8356C381.045 54.8408 380.086 55.8307 378.807 56.8054L378.35 57.0795C378.238 57.1679 378.145 57.2547 378.072 57.34C377.962 57.4679 377.452 57.8258 376.542 58.4137L375.665 59.4371C375.099 59.8392 374.668 60.191 374.373 60.4925C374.038 60.7971 373.564 61.1124 372.952 61.4383C372.155 62.4556 371.301 63.2582 370.39 63.8461C369.48 64.434 368.242 64.9077 366.677 65.2672C366.129 64.8713 365.813 64.3779 365.727 63.787C365.645 63.2358 365.401 62.6571 364.996 62.051C365.088 61.1677 365.17 60.1657 365.243 59.0449C365.316 57.924 365.319 56.9281 365.252 56.057C365.264 55.1798 365.278 54.3225 365.293 53.4849C365.308 52.6473 365.361 51.7869 365.452 50.9036C365.471 50.6234 365.469 50.3448 365.448 50.0676C365.463 49.7478 365.439 49.431 365.375 49.1173C365.286 48.4869 365.303 47.928 365.425 47.4407C365.474 47.0386 365.548 46.7142 365.649 46.4675L366 45.6041C366.037 45.0436 366.235 44.5106 366.594 44.005C366.78 43.3136 366.822 42.8324 366.722 42.5613L366.767 41.6019C366.706 40.81 366.067 40.2619 364.849 39.9574C364.691 39.9696 364.497 40.0442 364.269 40.1813C364.041 40.3183 363.808 40.396 363.57 40.4143C362.794 40.6732 362.046 40.7905 361.328 40.7662C360.968 40.7541 360.632 40.78 360.318 40.844C360.002 40.8683 359.706 40.911 359.432 40.9719C358.811 40.1435 358.097 39.4019 357.29 38.7472C356.483 38.0924 355.657 37.4391 354.81 36.7874L351.659 36.1937C350.487 35.9653 349.439 36.3248 348.517 37.2721L347.402 38.3138C347.031 38.661 346.577 38.9748 346.041 39.255C344.604 40.7597 342.921 42.1639 340.99 43.4676C339.1 44.7682 337.544 46.282 336.323 48.009C335.879 48.4415 335.472 48.8512 335.104 49.238C334.735 49.6249 334.414 50.1076 334.14 50.6864C333.757 50.8752 333.478 51.1356 333.304 51.4676C333.167 51.757 332.971 52.0509 332.715 52.3494L332.058 53.117C331.839 53.3728 331.598 53.6104 331.336 53.8297C331.074 54.049 330.835 54.3064 330.619 54.6018C330.44 54.8547 330.261 55.1273 330.085 55.4197C329.939 55.5902 329.68 55.8491 329.308 56.1964C329.05 56.4553 328.83 56.7111 328.651 56.9639C328.468 57.1771 328.365 57.3843 328.34 57.5853C328.319 57.8259 328.219 58.0726 328.039 58.3254C327.873 58.5186 327.724 58.7105 327.591 58.9012C326.988 59.417 326.356 59.9424 325.696 60.4773C324.645 61.315 323.636 62.1694 322.668 63.0405C321.246 64.2254 319.73 65.2184 318.119 66.0195C317.809 66.1231 317.439 66.2312 317.009 66.3439C316.58 66.4567 316.125 66.4917 315.644 66.4491C315.653 65.5323 315.52 64.8455 315.246 64.3887C314.924 63.8161 314.721 63.2542 314.639 62.7029C315.388 60.0166 315.893 57.2693 316.155 54.4611C316.179 54.2601 316.205 54.0789 316.232 53.9174L316.314 53.4332C316.342 53.2717 316.365 53.0509 316.383 52.7707C316.398 52.4509 316.407 52.0519 316.41 51.5738L316.798 49.6321C316.908 48.9864 316.8 48.3574 316.474 47.7453C316.054 47.459 315.432 46.6306 314.61 45.2601C314.193 45.0134 313.866 44.6403 313.628 44.1409C313.391 43.6414 313.063 43.2683 312.646 43.0216C312.135 42.5831 311.757 42.3333 311.514 42.2724C311.27 42.2115 310.755 42.2512 309.97 42.3913C309.197 42.6898 308.613 43.133 308.221 43.7209C307.791 44.3514 307.291 44.8281 306.718 45.1509C306.59 45.5591 306.393 45.8332 306.125 45.9733C305.893 46.0708 305.653 46.3084 305.403 46.6861C305.111 47.0272 304.84 47.3866 304.59 47.7643L303.832 48.7786C303.579 49.1167 303.328 49.4746 303.079 49.8523C302.826 50.1903 302.553 50.53 302.261 50.8711L301.375 51.7757L300.599 52.5524C300.34 52.8113 300.083 53.09 299.827 53.3885C299.568 53.6474 299.311 53.9261 299.055 54.2246C298.626 54.8551 298.134 55.4506 297.58 56.011C297.321 56.2699 297.064 56.5487 296.808 56.8471L295.986 57.8066C295.657 58.1904 295.228 58.562 294.698 58.9214C294.434 59.1011 294.188 59.2793 293.963 59.456C293.774 59.59 293.587 59.7438 293.401 59.9175C293.012 60.5449 292.68 60.8891 292.406 60.95C291.937 60.548 291.515 59.9831 291.141 59.2552C290.769 58.5668 290.341 57.9227 289.857 57.3227C290.085 56.1501 290.18 55.0475 290.14 54.0151C290.137 53.4577 290.135 52.9201 290.135 52.4023C290.132 51.845 290.149 51.2861 290.186 50.7257L290.323 49.4008L290.578 48.0667C290.746 47.1378 290.794 46.218 290.724 45.3073C290.691 44.8718 290.589 44.5809 290.418 44.4347C290.333 44.3616 290.246 44.2687 290.158 44.1561L289.893 43.818C289.159 43.0779 288.626 42.3622 288.294 41.6709C287.691 41.08 286.898 40.6034 285.915 40.2411C284.931 39.8787 283.87 40.06 282.731 40.7849C282.11 41.5098 281.454 42.0383 280.763 42.3703C280.072 42.7024 279.416 43.2308 278.795 43.9558C278.192 44.4005 277.674 44.9183 277.242 45.5092C276.81 46.1001 276.414 46.6483 276.055 47.1539C275.26 47.6931 274.642 48.1987 274.2 48.6708C273.759 49.1429 273.181 49.6455 272.465 50.1786C271.442 51.3726 270.334 52.4935 269.14 53.5413C268.291 54.921 267.408 56.1241 266.492 57.1506L265.012 58.8776C264.537 59.432 264.065 60.0259 263.596 60.6595C262.701 61.4453 261.908 62.2631 261.217 63.1129C260.529 64.0023 259.699 64.8628 258.728 65.6943L258.39 65.9593C258.278 66.0477 258.145 66.1375 257.993 66.2289C257.841 66.3203 257.708 66.4102 257.596 66.4985L257.258 66.7635C256.886 67.1107 256.629 67.3894 256.486 67.5996C256.273 67.9346 255.97 68.1372 255.577 68.2073C255.942 67.2631 256.294 66.3996 256.632 65.6168L257.696 63.1451C258.311 62.341 258.844 61.5034 259.294 60.6323C259.538 60.1755 259.783 59.7384 260.029 59.3211C260.276 58.9038 260.524 58.5063 260.774 58.1286C260.944 57.7571 261.157 57.422 261.413 57.1235C261.559 56.953 261.775 56.6575 262.062 56.2372C262.427 55.8108 262.693 55.3919 262.861 54.9808C263.028 54.5696 263.206 54.0381 263.395 53.3863C263.593 52.8533 263.83 52.3172 264.107 51.7781C264.275 51.3669 264.435 50.8568 264.587 50.2476C264.709 49.7603 265.008 49.0004 265.486 47.9678C265.59 47.7607 265.663 47.4165 265.705 46.9353C265.748 46.4541 265.818 46.0703 265.916 45.784C266.049 45.4551 266.182 45.1063 266.313 44.7378C266.444 44.3692 266.533 43.984 266.582 43.5819C266.734 42.455 266.507 41.5763 265.902 40.9459C265.296 40.3155 264.585 39.8724 263.769 39.6166C263.586 39.8298 263.288 40.0917 262.873 40.4024C262.459 40.7131 262.161 40.9751 261.978 41.1883C261.826 41.2797 261.692 41.3497 261.576 41.3985C261.461 41.4472 261.365 41.4944 261.289 41.5401C261.213 41.5858 261.117 41.633 261.001 41.6817C260.885 41.7305 260.751 41.8005 260.599 41.8919L260.142 42.1661C260.027 42.2148 259.913 42.2833 259.8 42.3717L258.087 43.3997C258.048 43.4028 257.955 43.4896 257.809 43.6601C257.699 43.7881 257.22 44.0241 256.37 44.3684C256.105 44.5481 255.886 44.8039 255.712 45.1359C255.542 45.5075 255.28 45.7268 254.927 45.7939C254.784 46.004 254.639 46.1944 254.493 46.365L254.055 46.8767L253.616 47.3884C253.47 47.5589 253.326 47.7493 253.182 47.9595C252.979 48.4133 252.909 48.7971 252.972 49.1108C253.03 49.3453 253.039 49.723 253 50.2438C252.951 50.6458 252.877 50.9702 252.776 51.2169L252.425 52.0804C252.199 52.7748 252.02 53.5454 251.886 54.3921C251.755 55.2784 251.49 55.9759 251.091 56.4846C251.177 57.5932 250.823 58.6958 250.032 59.7923C250.02 60.1517 249.788 60.7669 249.338 61.638C249.309 61.6895 249.281 61.7417 249.253 61.7947C249.08 61.869 248.88 61.9539 248.654 62.0494C248.538 62.0982 248.425 62.1865 248.316 62.3144C248.279 62.3571 248.011 62.4972 247.512 62.7348C247.357 62.7866 247.168 62.9206 246.946 63.1368C246.72 63.3135 246.492 63.4506 246.26 63.5481C245.807 63.8618 245.35 64.1359 244.89 64.3705C244.272 64.6172 243.832 64.8503 243.571 65.0696C243.233 65.3346 242.835 65.6041 242.379 65.8783C242.001 66.1463 241.663 66.4113 241.365 66.6733C241.142 66.8895 240.801 67.1149 240.342 67.3495C240.159 67.5627 239.95 67.6983 239.716 67.7561C239.482 67.814 239.273 67.9496 239.09 68.1628C238.713 68.4308 238.449 68.6303 238.3 68.7613L237.629 69.3507L237.172 69.6249C237.06 69.7132 236.927 69.803 236.775 69.8944L235.364 70.959L234.788 71.2423C234.633 71.2941 234.479 71.3657 234.327 71.457L233.29 71.9551C232.688 72.3998 232.126 72.8613 231.605 73.3395C231.121 73.775 230.511 74.1208 229.774 74.3767C230.541 72.4456 231.235 70.5999 231.856 68.8394C232.514 67.0363 233.217 65.3093 233.966 63.6585C234.136 62.7691 234.369 61.9148 234.664 61.0955C234.96 60.2762 235.275 59.4553 235.61 58.6329C235.951 57.372 236.427 56.0608 237.039 54.6993C237.617 53.4201 238.054 52.1119 238.349 50.7748C238.523 50.4428 238.558 50.1215 238.454 49.8108C238.351 49.5002 238.386 49.1789 238.559 48.8469C238.715 48.2773 238.976 47.7991 239.345 47.4123C239.789 46.9798 240.008 46.465 240.002 45.8681C239.68 44.7777 239.074 44.1473 238.185 43.9768C237.959 44.1534 237.731 44.2905 237.499 44.388C237.268 44.4855 236.839 44.5982 236.212 44.7262C236.072 44.9759 235.907 45.1678 235.718 45.3018C235.493 45.4785 235.326 45.6308 235.216 45.7587C234.854 46.7425 234.35 47.6974 233.704 48.6233C233.022 49.5919 232.479 50.5498 232.074 51.4971C231.943 51.8656 231.835 52.2722 231.75 52.7169C231.665 53.1616 231.557 53.5682 231.426 53.9367C231.356 54.0616 231.269 54.2276 231.166 54.4347C231.099 54.5992 230.994 54.7865 230.85 54.9967C230.604 55.4139 230.397 55.5693 230.229 55.4627C230.074 54.4789 230.024 53.5668 230.078 52.7261C230.133 51.8855 230.08 50.9337 229.918 49.8708C229.809 49.4809 229.678 49.0728 229.526 48.6464C229.373 48.22 229.203 47.815 229.014 47.4312L228.717 45.9008C228.592 45.3129 228.463 44.9246 228.329 44.7358C227.835 44.017 227.261 43.5435 226.607 43.3151C225.949 43.0471 225.259 42.6223 224.538 42.0406C223.107 42.0711 221.861 42.4458 220.802 43.1647L219.669 43.9688C219.292 44.2369 218.707 44.4014 217.916 44.4623C217.048 44.569 216.238 44.9102 215.486 45.4859C214.694 46.0646 213.973 46.5185 213.321 46.8474C212.472 47.1917 211.735 47.7064 211.111 48.3918C210.523 49.0344 209.783 49.5096 208.891 49.8173C207.308 50.9748 205.64 52.0592 203.886 53.0704C203.831 53.3933 203.688 53.6035 203.457 53.7009C203.186 53.8015 202.918 53.9416 202.653 54.1213C200.997 56.3996 199.517 58.9033 198.214 61.6323C197.867 62.2963 197.497 62.9222 197.104 63.5101C196.785 64.0126 196.418 64.6782 196.004 65.5066C195.861 65.7168 195.739 65.9452 195.639 66.1919C195.495 66.4021 195.395 66.6488 195.337 66.9321C195.212 67.3798 194.887 68.0621 194.36 68.9788C194.001 69.4845 193.743 70.022 193.588 70.5916C193.469 71.1185 193.294 71.6896 193.063 72.3049C193.243 72.5698 193.252 72.9475 193.091 73.4379C193.064 73.5231 193.042 73.6088 193.024 73.6951C192.938 73.7771 192.854 73.8587 192.77 73.9399C191.735 74.9755 190.426 75.8131 188.842 76.4528C188.404 76.9645 187.877 77.3636 187.262 77.6499C186.291 77.9637 185.368 78.3932 184.495 78.9384C183.66 79.4806 182.628 80.038 181.398 80.6107C181.075 80.5559 180.804 80.6564 180.585 80.9123C180.439 81.0829 180.18 81.3418 179.809 81.689C179.246 82.1307 178.427 82.3531 177.352 82.3562C176.317 82.3562 175.455 82.5421 174.767 82.9137L174.155 82.7219C173.582 82.527 173.433 82.1402 173.707 81.5615C173.981 80.9828 174.164 80.2518 174.255 79.3685L174.356 79.1218C174.386 79 174.418 78.898 174.451 78.8157C174.509 78.5325 174.703 77.9401 175.031 77.0385C175.147 76.472 175.305 75.942 175.506 75.4486L176.109 73.9683L176.42 73.347C176.52 73.1003 176.642 72.8719 176.785 72.6617C176.928 72.4515 177.03 72.2246 177.091 71.9809C177.188 71.6946 177.266 71.4099 177.324 71.1266C177.421 70.8403 177.57 70.4504 177.771 69.957L178.219 68.7874C178.398 68.0169 178.715 67.2158 179.168 66.3843C179.552 65.6777 179.908 64.8736 180.237 63.972L181.141 61.7516C181.476 60.9293 181.817 60.1861 182.164 59.5221C182.773 58.121 183.327 56.7839 183.826 55.5108C184.326 54.2376 184.724 52.4345 185.022 50.1015C184.471 49.666 183.96 49.2275 183.488 48.7859C183.013 48.3047 182.358 48.0763 181.524 48.1007C181.384 48.3505 181.116 48.4906 180.72 48.5211C180.324 48.5515 179.63 48.844 178.638 49.3984C178.294 49.5842 177.899 49.6344 177.455 49.5492C177.089 49.4578 176.732 49.4655 176.381 49.5721C175.675 49.7062 175.215 49.9407 175.002 50.2758C174.789 50.6108 174.549 51.1073 174.281 51.7652C173.934 52.4291 173.606 53.0916 173.299 53.7526C172.991 54.4135 172.743 55.0699 172.555 55.7217L172.262 56.5806C172.201 56.8242 172.142 57.0877 172.084 57.3709C171.932 57.9801 171.772 58.4903 171.605 58.9015L171.185 59.6507C171.081 59.8578 170.958 60.0665 170.815 60.2766C170.788 60.3189 170.761 60.3631 170.736 60.4091C170.207 60.596 169.636 60.7973 169.021 61.0131C168.494 60.8944 168.001 60.9523 167.541 61.1868C167.005 61.4671 166.561 61.6407 166.208 61.7078C165.699 61.8266 165.325 61.8753 165.084 61.854C164.725 61.8419 164.353 61.9302 163.97 62.1191C163.696 62.18 163.408 62.3216 163.106 62.544C162.954 62.6354 162.63 62.8197 162.134 63.0969C161.631 63.2949 161.027 63.4609 160.321 63.5949C159.69 63.6833 159.046 63.8524 158.389 64.1022C157.378 64.419 156.425 64.7115 155.53 64.9795C154.635 65.2476 153.502 65.2751 152.132 65.062C151.973 65.0742 151.739 65.1321 151.428 65.2356C151.118 65.3392 150.883 65.3971 150.725 65.4093C150.326 65.4002 150.001 65.3058 149.748 65.1261C149.498 64.986 149.181 65.0104 148.798 65.1993C148.621 64.9739 148.332 64.8368 147.93 64.7881C147.528 64.7394 147.087 64.6938 146.606 64.6512C145.984 64.8583 145.252 65.1736 144.409 65.597C143.565 66.0204 143.04 66.4392 142.833 66.8535C143.013 67.1184 143.072 67.3727 143.011 67.6164C142.947 67.8205 142.967 68.0778 143.071 68.3885C143.302 68.8088 143.544 69.1088 143.797 69.2885C144.132 69.5016 144.335 69.8047 144.405 70.1976C144.609 70.7793 144.68 71.4509 144.619 72.2123C144.607 72.5717 144.575 72.9326 144.524 73.2951L144.487 74.3732C144.481 74.8118 144.455 75.2519 144.409 75.6936L144.273 77.0185C144.227 77.4601 144.165 77.9429 144.085 78.4667C144.043 78.9479 144.003 79.4688 143.967 80.0292C143.827 80.7967 143.707 81.5627 143.606 82.3272C143.506 83.0917 143.427 83.8744 143.369 84.6755C143.25 86.2379 142.917 87.5979 142.369 88.7553C141.897 89.867 141.637 90.8828 141.588 91.8026C141.545 92.8016 141.325 93.8143 140.926 94.8407C140.585 95.5839 140.343 96.3194 140.2 97.0474C140.09 97.6931 139.806 98.3921 139.346 99.1444C139.102 100.119 138.876 101.053 138.666 101.945C138.459 102.877 138.25 103.789 138.04 104.682C137.59 106.588 136.926 108.571 136.049 110.63C136.037 110.989 135.921 111.297 135.702 111.553C135.593 111.681 135.434 111.952 135.227 112.366C134.825 112.835 134.539 113.256 134.369 113.627C134.265 113.834 134.142 114.043 133.999 114.253C133.895 114.46 133.772 114.669 133.629 114.879C133.489 115.129 133.347 115.359 133.204 115.569L132.775 116.199C132.629 116.37 132.484 116.56 132.341 116.77L131.912 117.401L131.113 118.657ZM155.691 22.0714C156.246 21.511 156.861 20.9657 157.536 20.4358C158.042 20.7951 158.511 21.1971 158.943 21.6418C158.779 22.0925 158.616 22.5631 158.455 23.0535C158.33 23.5012 158.185 23.9505 158.021 24.4012C157.896 24.849 157.753 25.318 157.592 25.8084L157.098 27.1607C156.919 27.4135 156.82 27.68 156.802 27.9602C156.783 28.2405 156.538 28.6775 156.066 29.2715C155.884 29.4847 155.78 29.6918 155.756 29.8928C155.732 30.0938 155.628 30.301 155.445 30.5142C154.73 31.565 154.025 32.7544 153.331 34.0824C152.743 35.2428 151.95 36.3195 150.952 37.3125C150.538 38.141 150.072 38.8141 149.554 39.3319C149.168 39.9989 148.685 40.7132 148.107 41.4747C147.562 42.1539 146.973 43.0357 146.339 44.12C146.187 44.7291 145.66 45.6459 144.759 46.8704C143.925 47.9303 143.138 49.0862 142.398 50.3381C141.729 51.465 140.899 52.5844 139.909 53.6961C139.413 52.9378 139.412 52.1413 139.905 51.3068C140.151 50.8895 140.358 50.4753 140.526 50.0641C140.73 49.6103 140.914 49.158 141.078 48.7072C141.301 47.9731 141.511 47.3396 141.708 46.8066C141.842 46.4777 141.937 46.1518 141.992 45.8289C142.086 45.503 142.159 45.1588 142.211 44.7964C142.756 43.0816 143.409 41.478 144.17 39.9856C144.55 39.2393 144.963 38.3911 145.407 37.4408C145.888 36.4478 146.381 35.3544 146.887 34.1604C147.843 33.1309 148.575 32.039 149.083 30.8846C149.631 29.7272 150.315 28.5196 151.134 27.2616C152.038 26.0768 152.985 24.9285 153.974 23.8167C154.565 23.2136 155.137 22.6319 155.691 22.0714ZM187.917 28.7295L189.132 28.9944C189.305 29.1802 189.403 29.4117 189.424 29.6888C189.439 29.8868 189.573 30.0756 189.826 30.2553C189.722 30.9802 189.64 31.7233 189.579 32.4848C189.519 33.2462 189.516 33.9833 189.57 34.696C189.592 34.9731 189.712 35.2427 189.931 35.5046C190.15 35.7665 190.268 35.9964 190.283 36.1944C189.957 37.1356 189.703 37.7127 189.52 37.926C189.338 38.1392 189.254 38.3448 189.269 38.5427C188.886 38.7316 188.607 38.992 188.433 39.324C188.26 39.656 187.936 39.8403 187.461 39.8769C187.321 40.1266 187.156 40.3185 186.967 40.4525C186.742 40.6292 186.62 40.8576 186.602 41.1379C185.339 41.7928 183.911 41.8629 182.318 41.3483C181.825 40.6295 181.231 40.1575 180.537 39.9321C179.392 38.5068 179.215 36.7281 180.007 34.5961C180.135 34.1879 180.281 33.7585 180.445 33.3077C180.61 32.8569 180.765 32.5462 180.911 32.3757C181.696 31.7178 182.299 31.273 182.719 31.0415L183.176 30.7674C183.365 30.6334 183.534 30.5009 183.683 30.3699C183.945 30.1506 184.345 29.9206 184.884 29.68C185.116 29.5825 185.33 29.5261 185.528 29.5109C185.845 29.4865 186.136 29.3844 186.4 29.2047C186.556 29.1529 186.691 29.1027 186.807 29.0539C186.962 29.0022 187.098 28.9519 187.213 28.9032C187.524 28.7996 187.758 28.7417 187.917 28.7295ZM351.23 44.5908C349.172 45.7848 347.325 47.1418 345.69 48.6617C344.055 50.1817 342.507 51.7945 341.046 53.5002C340.863 53.7134 340.661 53.9281 340.438 54.1444C340.253 54.318 340.069 54.5114 339.886 54.7246C339.7 54.8982 339.516 55.0916 339.333 55.3049C339.151 55.5181 338.988 55.7298 338.845 55.9399C338.558 56.3602 338.298 56.8582 338.064 57.4339L337.411 59.0375L337.21 59.5309C337.14 59.6558 337.068 59.7609 336.995 59.8462C336.922 59.9315 336.851 60.0365 336.781 60.1614L336.571 60.5361C336.443 60.9442 336.414 61.3447 336.484 61.7376C336.545 62.0117 336.598 62.4457 336.644 63.0396L336.735 64.2275C336.753 64.465 336.824 64.8579 336.945 65.4061C337.25 66.2589 337.436 67.1208 337.503 67.9919C337.551 68.6254 337.67 69.3929 337.859 70.2945C338.048 71.196 338.392 71.7868 338.891 72.067C339.43 72.3441 339.931 72.3852 340.394 72.1903C340.933 71.9496 341.379 71.7958 341.732 71.7287C344.338 69.3773 346.778 66.939 349.053 64.414C351.327 61.8889 353.301 59.0883 354.976 56.012C354.668 54.0841 354.494 52.0861 354.455 50.018C354.424 48.0688 354.107 46.281 353.504 44.6546C353.173 44.481 352.792 44.4506 352.363 44.5633C352.049 44.6273 351.671 44.6364 351.23 44.5908ZM223.552 50.9585L223.671 50.9494C224.085 51.1564 224.312 51.5173 224.351 52.0321C224.394 52.5864 224.508 53.0356 224.694 53.3798C224.572 53.8671 224.431 54.3559 224.269 54.8463L223.776 56.1987C223.447 57.1002 223.105 58.0825 222.749 59.1454C222.459 59.5262 222.191 59.9252 221.945 60.3425C221.695 60.7202 221.447 61.1176 221.2 61.5349C220.954 61.9522 220.709 62.3893 220.465 62.8461C220.219 63.2634 219.954 63.702 219.671 64.1619C219.293 64.43 218.96 64.7544 218.671 65.1351C218.491 65.3879 218.164 65.7915 217.689 66.3459C217.512 66.6383 217.22 66.9794 216.812 67.3693C216.404 67.7591 216.112 68.1003 215.935 68.3927C215.357 69.1542 214.76 69.9369 214.145 70.7411C213.53 71.5452 212.851 72.2945 212.108 72.9889C211.371 73.7626 210.653 74.5149 209.953 75.2459C209.252 75.977 208.528 76.6501 207.779 77.2654C207.176 77.7101 206.469 78.1031 205.66 78.4442C204.85 78.7854 204.183 78.6575 203.659 78.0606C203.589 77.6677 203.499 77.2763 203.39 76.8865C203.277 76.457 203.166 76.0474 203.056 75.6576C202.791 74.8017 203.035 73.5682 203.787 71.957C204.027 71.4605 204.175 71.0508 204.23 70.728C204.318 70.3229 204.554 70.0259 204.937 69.8371C205.565 68.1558 206.475 66.5324 207.668 64.9668C208.828 63.4834 209.781 61.8966 210.527 60.2061C210.923 60.1757 211.171 60.0371 211.271 59.7904C211.372 59.5436 211.532 59.2924 211.751 59.0365C212.116 58.6101 212.547 58.2583 213.043 57.9811C213.311 57.841 213.559 57.7024 213.788 57.5653L214.464 57.0353C214.841 56.7672 215.135 56.4459 215.345 56.0713C215.589 55.6144 215.879 55.2535 216.217 54.9885C216.744 54.5894 217.45 54.1965 218.336 53.8096C218.76 53.6177 219.143 53.4289 219.487 53.2431C219.871 53.0542 220.233 52.8471 220.574 52.6217C220.684 52.4937 220.851 52.3414 221.077 52.1648C221.302 51.9881 221.469 51.8358 221.579 51.7079C221.844 51.5282 222.174 51.4231 222.57 51.3926C222.966 51.3621 223.293 51.2174 223.552 50.9585ZM216.622 95.1645C216.841 94.9087 217.048 94.7533 217.243 94.6985C217.438 94.1259 217.776 93.602 218.257 93.1268C218.439 92.9136 218.642 92.6989 218.864 92.4826C219.086 92.2664 219.307 92.0303 219.526 91.7745C218.838 94.2172 218.185 96.5974 217.567 98.9153C216.989 101.23 216.044 103.434 214.732 105.526C214.452 106.026 214.17 106.505 213.887 106.965C213.604 107.425 213.283 107.908 212.923 108.414C212.156 109.827 211.307 111.207 210.375 112.553L208.978 114.572L207.708 116.701C207.562 116.872 207.439 117.081 207.338 117.327C207.238 117.574 207.114 117.783 206.968 117.953C206.609 118.459 206.192 118.989 205.717 119.543L204.347 121.142C204.38 120.542 204.457 119.979 204.575 119.452C204.633 119.169 204.686 118.826 204.735 118.424C204.787 118.061 204.834 117.64 204.877 117.158C205.138 115.386 205.551 113.761 206.114 112.284C206.677 110.806 207.342 109.361 208.109 107.948C208.298 106.778 208.829 105.662 209.703 104.599C210.537 103.539 211.273 102.487 211.909 101.442C212.463 100.364 213.084 99.38 213.772 98.4906C214.46 97.6012 215.17 96.7301 215.9 95.8773C216.272 95.53 216.512 95.2925 216.622 95.1645ZM41.5166 85.1701C42.1195 84.7254 42.5944 84.1711 42.9415 83.5071C43.115 83.1751 43.3083 82.8416 43.5214 82.5065C43.7346 82.1715 43.9675 81.8349 44.2201 81.4968C45.1579 80.2297 46.19 79.1545 47.3165 78.2712C47.8066 77.397 48.4521 76.73 49.2528 76.27C50.0505 75.7705 50.6533 75.0669 51.0612 74.1592C51.1678 73.9917 51.2881 73.7435 51.422 73.4145C51.556 73.0856 51.6762 72.8374 51.7828 72.6698C53.1254 70.4555 54.6141 68.5884 56.2491 67.0685L56.9158 66.4197C57.1381 66.2034 57.3405 65.9887 57.5232 65.7755C57.8155 65.4343 58.3194 64.9972 59.0348 64.4642C59.3758 64.2388 59.7153 63.9936 60.0533 63.7286C60.3882 63.424 60.7018 63.1011 60.994 62.76C61.5786 62.0777 62.2743 61.5462 63.0811 61.1654C63.5774 60.8882 64.0782 60.6704 64.5837 60.512C64.8151 60.4145 65.048 60.3369 65.2824 60.279L66.0953 59.9774C66.6373 59.7764 67.1214 59.5997 67.5477 59.4474C67.9739 59.295 68.4702 59.2767 69.0365 59.3924C70.3428 59.8096 71.375 60.8055 72.1333 62.3801C72.4164 62.9557 72.3739 64.2136 72.0056 66.1537C71.6769 68.0908 71.2553 70.1147 70.7409 72.2255C70.2234 74.2966 69.8688 75.8971 69.6771 77.0271C69.5645 77.6332 69.5508 77.9728 69.636 78.0459C69.7213 78.119 69.7685 78.2149 69.7776 78.3337C69.6498 78.7419 69.5585 79.1073 69.5037 79.4302C69.4489 79.753 69.3971 80.1155 69.3485 80.5175C69.2389 81.1632 69.1857 82.0237 69.1888 83.0988C69.1919 84.1739 69.297 85.0222 69.5041 85.6435C70.2926 85.5429 70.7417 85.4287 70.8513 85.3007C70.9244 85.2155 71.0203 85.1682 71.1391 85.1591C71.4496 85.0555 71.7054 85.0159 71.9063 85.0403C72.1073 85.0646 72.3631 85.025 72.6736 84.9214C74.2629 84.3609 75.6604 83.3771 76.866 81.9699C77.5541 81.5982 78.2027 81.2297 78.8116 80.8641C79.4601 80.4956 80.069 80.13 80.6384 79.7676C81.6857 78.8903 82.5321 78.2476 83.1776 77.8395C83.823 77.4313 84.7943 76.8586 86.0913 76.1215C86.5601 75.4879 87.2147 74.9397 88.055 74.4767C88.8193 74.0594 89.553 73.505 90.2563 72.8136C90.4755 72.5577 90.6567 72.3247 90.7997 72.1145C91.0129 71.7795 91.2458 71.7018 91.4985 71.8815C91.9248 72.247 92.2141 72.6429 92.3663 73.0693C92.5186 73.4957 92.5612 73.7911 92.4943 73.9556C91.9463 74.5952 91.6464 75.0962 91.5946 75.4587C91.5429 75.8211 91.4622 76.0663 91.3526 76.1942C90.9873 76.6207 90.421 77.0227 89.6537 77.4005C89.0022 77.7294 88.6064 78.0188 88.4663 78.2686C88.3263 78.5183 88.2015 78.7072 88.0919 78.8351C87.8727 79.091 87.6687 79.2859 87.4799 79.4199C87.2911 79.5539 87.0871 79.7489 86.8679 80.0047C86.7279 80.2545 86.5209 80.4098 86.2468 80.4708L85.4887 80.7084C85.0442 81.1409 84.6758 81.5277 84.3835 81.8689L83.3971 83.0202C82.8491 83.6599 82.4883 84.1457 82.3148 84.4777C82.1778 84.767 81.7714 85.1767 81.0954 85.7067L78.8303 87.315C77.7646 87.9546 76.7082 88.7131 75.6608 89.5903L72.5188 92.222C71.8398 92.7124 71.0604 93.1907 70.1805 93.6567C69.3767 94.0771 68.6369 94.5523 67.961 95.0823C67.6047 95.1097 67.3855 95.1067 67.3033 95.0732C67.1785 95.0031 66.9653 95.0793 66.6639 95.3016C66.2529 95.1341 65.8555 95.1448 65.4719 95.3337C65.0517 95.5652 64.6574 95.6155 64.289 95.4845C63.8688 95.1983 63.5126 94.9668 63.2203 94.7902C62.9675 94.6105 62.759 94.4871 62.5946 94.4202C62.3449 94.2801 62.1119 94.0989 61.8957 93.8765C61.7069 93.4928 61.6141 93.0618 61.6171 92.5836C61.6201 92.1055 61.4907 91.7171 61.2288 91.4187C61.0947 89.6765 61.0261 88.009 61.0229 86.4161C61.0198 84.8232 61.1491 83.1404 61.4108 81.3678C61.4473 80.8074 61.5721 79.8419 61.7852 78.4713C61.9951 77.0611 62.1503 75.7149 62.2507 74.4326C62.3511 73.1504 62.2354 72.4225 61.9035 72.2489C61.0693 72.7911 60.2335 73.5723 59.3963 74.5927C58.9975 75.1014 58.5956 75.5704 58.1907 75.9999C57.7857 76.4294 57.3976 76.8177 57.0261 77.165L55.2861 78.6133C55.0243 78.8326 54.7442 79.0733 54.4458 79.3352C54.1444 79.5576 53.8445 79.7997 53.5461 80.0617C53.0225 80.5003 52.578 80.9328 52.2126 81.3592C51.8473 81.7857 51.4485 82.2943 51.0161 82.8852L50.2489 83.7807C50.0297 84.0366 49.812 84.3122 49.5959 84.6077C49.1605 85.159 48.6444 85.6966 48.0477 86.2205C47.6824 86.6469 47.4053 86.9271 47.2165 87.0612C47.0278 87.1952 46.7873 87.4328 46.495 87.7739L45.4538 88.9892C45.1249 89.373 44.6926 89.705 44.1568 89.9852C43.0212 91.7853 41.7227 93.5382 40.2613 95.2439C38.8395 96.9466 37.7359 98.6446 36.9505 100.338C36.0615 101.203 35.1055 101.974 34.0825 102.65C33.0595 103.326 31.7776 103.485 30.237 103.125C29.4088 102.711 28.8637 102.355 28.6019 102.056C28.343 101.798 28.0477 101.581 27.7158 101.408C27.7279 100.531 27.7431 99.693 27.7613 98.895C27.7795 98.097 27.953 97.2473 28.2818 96.3457L28.9029 95.103C29.2469 94.3994 29.4432 93.5877 29.4919 92.6679C29.5205 92.0649 29.6075 91.5046 29.7529 90.987C29.3493 91.572 28.8407 92.0853 28.2269 92.5269C26.6498 94.2814 24.954 95.7861 23.1394 97.041C22.1925 97.6716 21.3065 98.3173 20.4815 98.9783C19.6533 99.5997 18.8648 100.218 18.1158 100.833C17.7383 101.101 17.478 101.34 17.3349 101.551C17.1918 101.761 16.9345 102.039 16.5631 102.387C16.1916 102.734 15.6025 103.098 14.7957 103.479C13.9888 103.859 13.2779 104.193 12.6629 104.479C12.1727 104.836 11.7556 105.107 11.4115 105.293C9.63645 105.509 8.26935 105.335 7.31021 104.772C6.23843 104.297 5.41328 103.922 4.83476 103.648C4.25623 103.374 3.74164 102.896 3.29097 102.214C2.34708 101.849 1.75635 101.157 1.51879 100.14C1.39697 99.5917 1.25688 99.0648 1.09852 98.5592L0.623438 97.0425C0.513802 96.6526 0.399595 96.2034 0.280817 95.6948C0.162039 95.1861 0.1209 94.6516 0.157402 94.0912C0.285222 93.1653 0.332356 92.2257 0.298803 91.2724C0.271345 90.3982 0.403736 89.5317 0.695978 88.6728C0.991267 87.8535 1.14193 86.9657 1.14795 86.0093C1.15398 85.053 1.30464 84.1651 1.59993 83.3458C2.05355 82.5143 2.23772 82.062 2.15247 81.9889C2.10984 81.9523 2.12049 81.832 2.18441 81.628L2.66391 80.8741C2.77047 80.7066 2.92726 80.4157 3.13427 80.0015L3.70962 78.1649C4.01405 77.4644 4.32762 76.8826 4.65033 76.4196C4.97 75.9171 5.23485 75.2196 5.44488 74.3272C5.60013 73.7576 5.78431 73.3053 5.99742 72.9703C6.14051 72.7601 6.26381 72.5515 6.36732 72.3444L6.78744 71.5951C6.95488 71.1839 7.1147 70.6737 7.2669 70.0646C7.32473 69.7813 7.38408 69.5179 7.44496 69.2742L7.73721 68.4153C7.92594 67.7635 8.17404 67.1071 8.48152 66.4462C8.789 65.7852 9.11627 65.1228 9.46333 64.4588C9.73123 63.8009 9.97173 63.3044 10.1848 62.9694C10.398 62.6343 10.8577 62.3998 11.5641 62.2657C11.9142 62.1591 12.272 62.1515 12.6373 62.2428C13.0819 62.3281 13.4762 62.2778 13.8202 62.092C14.8128 61.5376 15.507 61.2452 15.9028 61.2147C16.2986 61.1842 16.5665 61.0441 16.7066 60.7943C17.5408 60.7699 18.1955 60.9983 18.6705 61.4795C19.1424 61.9211 19.654 62.3596 20.2051 62.7951C19.9069 65.1282 19.5081 66.9313 19.0089 68.2044C18.5096 69.4776 17.9556 70.8147 17.3467 72.2157C16.9996 72.8797 16.6587 73.6229 16.3238 74.4453L15.4197 76.6657C15.0909 77.5672 14.7347 78.3713 14.3511 79.0779C13.8975 79.9094 13.5809 80.7105 13.4013 81.4811L12.9538 82.6507C12.7529 83.1441 12.6037 83.5339 12.5063 83.8202C12.4484 84.1035 12.3708 84.3883 12.2734 84.6746C12.2125 84.9182 12.1105 85.1452 11.9675 85.3553C11.8244 85.5655 11.7026 85.7939 11.6021 86.0406L11.2916 86.662L10.6888 88.1422C10.4879 88.6357 10.3296 89.1656 10.214 89.7321C9.88518 90.6337 9.69187 91.2261 9.63404 91.5093C9.60055 91.5916 9.56859 91.6936 9.53815 91.8154L9.43769 92.0622C9.3464 92.9454 9.16376 93.6764 8.88977 94.2551C8.61578 94.8338 8.765 95.2206 9.33742 95.4155L9.94943 95.6073C10.6375 95.2357 11.4992 95.0499 12.5344 95.0498C13.6092 95.0467 14.4282 94.8243 14.9915 94.3826C15.3629 94.0354 15.6217 93.7765 15.7678 93.6059C15.987 93.3501 16.258 93.2495 16.5808 93.3043C17.8108 92.7317 18.8429 92.1742 19.6772 91.6321C20.551 91.0868 21.4735 90.6573 22.4448 90.3435C23.0598 90.0572 23.5865 89.6582 24.0249 89.1465C25.6082 88.5068 26.9173 87.6691 27.9525 86.6335C29.0272 85.5948 30.1963 84.4892 31.4598 83.3165C32.3271 82.7281 33.0792 82.2019 33.7159 81.7379C33.7556 81.6445 33.7921 81.5522 33.8254 81.4609C34.1693 79.7218 34.6685 77.9309 35.323 76.0882C35.4387 75.5217 35.5559 74.975 35.6746 74.448C35.7933 73.9211 35.9531 73.411 36.154 72.9175L36.6472 71.5652C36.8116 71.1144 36.9775 70.6834 37.1449 70.2723C37.3093 69.8215 37.4752 69.3905 37.6427 68.9793L38.1358 67.627C38.3368 67.1336 38.5225 66.7011 38.6929 66.3295C38.8634 65.9579 39.0918 65.5619 39.3779 65.1416L39.6885 64.5203C39.792 64.3131 39.8757 64.1075 39.9396 63.9035C40.0035 63.6994 40.0873 63.4938 40.1908 63.2867L40.5013 62.6654L40.8118 62.044C40.9123 61.7973 40.9914 61.5323 41.0493 61.2491C41.168 60.7221 41.4268 60.2044 41.8256 59.6957C42.0783 59.3576 42.2929 59.0424 42.4695 58.75C42.6826 58.4149 42.8577 58.1027 42.9946 57.8134C43.2321 57.2773 43.7192 56.8813 44.4561 56.6254C45.1533 56.8904 45.8369 56.7182 46.5067 56.1091C47.213 55.4572 47.8296 55.4496 48.3564 56.0861C49.5195 56.7134 50.3142 57.2098 50.7405 57.5753C51.249 57.9743 51.5992 58.3854 51.791 58.8088C52.2417 59.491 52.3376 60.2204 52.0789 60.9971C51.8201 61.7738 51.3163 62.4697 50.5673 63.085C50.3847 64.3338 49.9281 65.6435 49.1974 67.0141C48.8473 67.6385 48.517 68.2614 48.2065 68.8827C47.8929 69.4645 47.5991 70.0447 47.3251 70.6234L46.558 73.0722C46.1683 74.2174 45.7589 75.3642 45.3296 76.5124C44.9004 77.6607 44.4088 78.7739 43.8547 79.8521C43.4224 80.9608 43.0799 81.6842 42.8272 82.0223C42.6141 82.3573 42.4208 82.6909 42.2472 83.0228C42.1103 83.3122 41.8667 84.028 41.5166 85.1701ZM24.3142 41.688L23.0993 41.4231C22.941 41.4353 22.7066 41.4932 22.396 41.5968C22.2803 41.6455 22.1448 41.6958 21.9895 41.7476C21.8738 41.7963 21.7383 41.8466 21.5831 41.8984C21.3182 42.0781 21.0274 42.1801 20.7108 42.2045C20.5129 42.2198 20.2982 42.2761 20.0668 42.3736C19.5279 42.6142 19.1275 42.8442 18.8657 43.0635C18.7165 43.1945 18.5475 43.327 18.3588 43.461L17.9021 43.7352C17.4819 43.9667 16.8791 44.4114 16.0936 45.0693C15.9474 45.2399 15.7922 45.5506 15.6278 46.0013C15.4634 46.4521 15.3173 46.8816 15.1894 47.2897C14.3979 49.4218 14.5746 51.2004 15.7195 52.6258C16.4138 52.8511 17.0075 53.3232 17.5008 54.0419C19.0933 54.5565 20.5212 54.4864 21.7848 53.8315C21.803 53.5513 21.9248 53.3228 22.1501 53.1462C22.3389 53.0121 22.5033 52.8203 22.6433 52.5705C23.1183 52.5339 23.4426 52.3496 23.6161 52.0176C23.7896 51.6856 24.0682 51.4252 24.4518 51.2364C24.4366 51.0384 24.5203 50.8328 24.703 50.6196C24.8856 50.4064 25.1398 49.8292 25.4656 48.888C25.4503 48.6901 25.3331 48.4601 25.1139 48.1982C24.8946 47.9363 24.7743 47.6668 24.753 47.3896C24.6982 46.6769 24.7011 45.9398 24.762 45.1784C24.8228 44.417 24.905 43.6738 25.0085 42.9489C24.7558 42.7692 24.6218 42.5804 24.6065 42.3824C24.5852 42.1053 24.4878 41.8738 24.3142 41.688Z" fill="white"/>
</svg>
