<svg width="40" height="25" viewBox="0 0 40 25" fill="none" xmlns="http://www.w3.org/2000/svg">
<path d="M7.06552 13.4573C7.04322 13.3389 6.97656 13.2336 6.87931 13.1632C6.84007 13.1221 6.79118 13.0917 6.73716 13.0747C6.68314 13.0576 6.62571 13.0546 6.5702 13.0658C6.51769 13.0766 6.46822 13.099 6.42539 13.1314C6.38255 13.1638 6.34744 13.2054 6.32256 13.2531L6.19592 13.4592C6.12889 13.5829 6.05441 13.7103 5.97062 13.8489C5.88683 13.9875 5.86635 14.0362 5.85704 14.055L5.36917 14.8437C5.20221 15.1166 4.99644 15.3634 4.75841 15.5763C4.6443 15.6941 4.50565 15.7849 4.35246 15.8423C4.32826 15.8423 4.31709 15.8423 4.31523 15.8423C4.2984 15.8205 4.28749 15.7947 4.28357 15.7674C4.26371 15.6681 4.2562 15.5668 4.26122 15.4657C4.27612 15.314 4.29101 15.1679 4.30591 15.033C4.35634 14.7318 4.42727 14.4344 4.51819 14.143C4.61688 13.8227 4.7193 13.5173 4.82544 13.2325L5.05633 12.5693C5.13197 12.3795 5.18509 12.1814 5.21461 11.9791C5.27248 11.6992 5.27248 11.4103 5.21461 11.1304C5.18959 10.9969 5.11915 10.8764 5.01537 10.7894C4.95289 10.7352 4.87728 10.6985 4.79621 10.6831C4.71513 10.6676 4.63145 10.6739 4.55358 10.7014C4.37285 10.7584 4.21369 10.8695 4.09736 11.0199C3.95957 11.1641 3.79943 11.3196 3.61509 11.4883C3.43074 11.6569 3.05647 11.7937 2.91867 11.7075C2.78088 11.6213 2.84047 11.3871 2.87958 11.2485C2.9663 10.9277 3.02855 10.6008 3.06578 10.2705C3.11651 9.99744 3.11651 9.71729 3.06578 9.44425C2.96523 9.00772 2.65612 9.03021 2.52764 9.06955C2.4081 9.1039 2.29755 9.16438 2.20389 9.24663C2.11023 9.32889 2.03576 9.4309 1.98577 9.54543C1.84323 9.80387 1.73613 10.0805 1.66736 10.3679C1.59862 10.6834 1.55749 11.0044 1.54446 11.3271C1.53852 11.6029 1.5692 11.8783 1.6357 12.1459C1.51104 12.5653 1.36181 12.9769 1.1888 13.3786C1.00259 13.8414 0.801491 14.2892 0.591077 14.7089C0.380662 15.1285 0.218659 15.4714 0.0529337 15.7505C0.000362832 15.8473 -0.013681 15.9605 0.0136328 16.0673C0.0409466 16.1741 0.107583 16.2665 0.200045 16.3257C0.458874 16.4737 0.758655 16.2714 0.861069 16.1383C1.05881 15.8499 1.23557 15.5475 1.38991 15.2334C1.60033 14.8475 1.80888 14.4166 2.01371 13.9538C2.19991 13.5229 2.35447 13.0995 2.48295 12.6911C2.71796 12.7035 2.95347 12.6794 3.18123 12.6199C3.42484 12.5611 3.66051 12.473 3.88322 12.3576C3.96313 12.3148 4.04082 12.2679 4.11598 12.2171C4.03218 12.5093 3.92979 12.8222 3.80875 13.1538C3.62768 13.6581 3.47719 14.1731 3.35812 14.6957C3.23347 15.1866 3.22581 15.7001 3.33578 16.1945C3.35692 16.3091 3.4025 16.4176 3.46936 16.5127C3.53623 16.6078 3.62278 16.6872 3.72308 16.7454C3.85044 16.8108 3.99164 16.8442 4.13461 16.8428C4.22181 16.842 4.30862 16.8313 4.39342 16.8109C4.66686 16.7452 4.92412 16.6241 5.14944 16.455C5.39963 16.2598 5.62702 16.0366 5.82724 15.7899C6.01344 15.5425 6.23875 15.2278 6.4771 14.8531C6.68769 14.5369 6.86907 14.2021 7.01897 13.8526C7.0819 13.731 7.09846 13.5904 7.06552 13.4573Z" fill="white"/>
<path d="M16.2162 18.4443C14.3953 18.4959 7.02593 18.894 5.00293 19.8831C4.6176 20.0715 4.39882 20.3582 4.55096 20.6732C4.72651 21.0367 5.11117 20.9085 5.54467 20.6966C6.19687 20.3777 6.91529 20.2461 7.63153 20.1149C7.70873 20.1008 7.78589 20.0866 7.86295 20.0723C10.9582 19.5773 14.7327 19.3793 17.8941 19.3911C18.96 19.3792 20.7678 19.4238 21.7836 19.6161C21.9448 19.6475 22.085 19.7693 22.2223 19.8886C22.421 20.0612 22.6138 20.2286 22.8558 20.1103C23.1207 19.9808 23.2803 19.6331 23.1399 19.3424C22.5889 18.2015 17.8656 18.3815 16.3809 18.4381C16.3205 18.4404 16.2654 18.4425 16.2162 18.4443Z" fill="#fff"/>
<path d="M12.8496 11.7256C12.9662 11.7176 13.0815 11.7537 13.1729 11.8268C13.2338 11.8679 13.2849 11.9219 13.3228 11.985C13.3606 12.0482 13.3842 12.1189 13.3918 12.1922C13.3978 12.3713 13.3335 12.5454 13.2128 12.6772C12.2153 13.8591 10.0426 16.117 7.83317 16.3204C7.6089 16.3457 7.38187 16.3247 7.16594 16.2587C6.95001 16.1927 6.74975 16.083 6.57743 15.9364C6.4051 15.7898 6.26436 15.6093 6.16379 15.406C6.06321 15.2027 6.00494 14.9809 5.99255 14.7542C5.8645 13.328 7.26718 10.5971 8.77176 10.4614C9.29424 10.4135 9.9029 10.8846 9.9632 11.561C10.0844 12.8977 8.63399 13.8234 7.65786 13.9136C7.5725 13.919 7.48906 13.9415 7.41234 13.9795C7.33561 14.0175 7.26711 14.0704 7.21076 14.1351C7.1544 14.1999 7.11131 14.2751 7.08396 14.3567C7.0566 14.4382 7.04552 14.5244 7.05135 14.6103C7.06136 14.7138 7.09232 14.8143 7.14234 14.9054C7.19236 14.9965 7.26039 15.0763 7.34222 15.14C7.42404 15.2037 7.51795 15.2498 7.61817 15.2756C7.71838 15.3015 7.82277 15.3064 7.92494 15.2901C9.64422 15.1337 11.3108 13.3101 12.3202 12.0779C12.4473 11.8987 12.6359 11.7732 12.8496 11.7256ZM8.68624 11.7092C8.45938 11.7314 7.94864 12.2914 7.9675 12.4952C7.96758 12.507 7.97032 12.5187 7.97548 12.5294C7.98064 12.54 7.98811 12.5494 7.99733 12.5567C8.00656 12.5641 8.01729 12.5692 8.02877 12.5718C8.04024 12.5745 8.05218 12.5745 8.06366 12.5718C8.38771 12.541 8.79431 11.902 8.78438 11.7859C8.78401 11.774 8.78103 11.7623 8.77565 11.7516C8.77026 11.741 8.7626 11.7317 8.75323 11.7243C8.74385 11.717 8.733 11.7119 8.72142 11.7092C8.70984 11.7066 8.69782 11.7066 8.68624 11.7092Z" fill="white"/>
<path d="M20.4661 11.0338C20.5949 11.0329 20.7198 11.0782 20.8184 11.1614C20.9171 11.2446 20.9832 11.3604 21.0048 11.4882C21.0098 11.6812 20.94 11.8687 20.8102 12.0111C20.2366 12.6927 18.298 14.8393 16.9614 14.961C16.4855 15.0045 16.0855 14.7908 15.8498 14.1648C15.7448 13.8868 15.7426 12.9993 15.4733 13.0239C15.2566 13.0424 14.9581 13.5412 14.8606 13.6676C14.486 14.1474 13.376 15.2602 12.5619 15.334C12.0881 15.3775 11.7372 14.9788 11.681 14.3553C11.569 13.1003 12.6262 10.9904 13.9831 10.8655C14.623 10.8077 15.0095 11.2808 15.2667 11.2577C15.692 11.2184 15.8202 10.1285 16.3428 10.0786C16.4121 10.0756 16.4814 10.0864 16.5465 10.1104C16.6117 10.1345 16.6715 10.1712 16.7225 10.2186C16.7735 10.2659 16.8147 10.323 16.8437 10.3864C16.8727 10.4498 16.889 10.5184 16.8915 10.5881C16.9679 11.4337 16.5983 12.1655 16.6894 13.1619C16.7184 13.4777 16.7659 13.8937 17.0676 13.8662C18.1814 13.7648 19.3518 12.0978 19.9473 11.3702C20.0718 11.1962 20.2572 11.076 20.4661 11.0338ZM12.7474 13.9456C12.7445 14.0247 12.7773 14.0686 12.8583 14.0614C13.2755 14.0218 14.5567 12.6391 14.5206 12.2417C14.5062 12.0828 14.2832 11.9995 14.0624 12.0219C13.4326 12.078 12.6949 13.2755 12.7474 13.9456Z" fill="white"/>
<path d="M20.8314 14.3377C20.8438 15.055 20.9184 15.6142 21.3264 15.6068C22.3363 15.5869 23.9 11.4181 24.4187 10.6938C24.595 10.4525 24.919 9.9201 25.2342 9.91133C25.354 9.91782 25.4671 9.96882 25.5517 10.0545C25.6362 10.1401 25.6861 10.2543 25.6917 10.3749C25.7004 10.9174 24.8605 11.6482 24.6868 12.0439C24.0575 13.481 22.5975 16.7357 21.1453 16.7618C20.1536 16.7803 19.8293 15.7591 19.8133 14.5278C19.7533 11.2195 21.5258 3.17744 21.9129 1.12427C21.9802 0.771338 22.155 0.0100932 22.6035 0.000115621C22.967 -0.00687802 23.0951 0.304475 23.101 0.641806C23.1215 1.80418 22.1445 5.0989 21.7691 7.16266C21.6445 7.87294 20.7975 12.4843 20.8314 14.3377Z" fill="white"/>
<path d="M31.6 10.4622C31.6081 10.8524 31.2148 11.0106 30.8654 11.0181C29.3627 11.0443 28.76 9.96418 28.459 9.9694C28.1581 9.97463 26.7752 14.7817 25.0181 14.8128C24.4 14.8247 24.1553 14.0562 24.1422 13.3591C24.1134 11.7558 24.4967 10.5899 24.8253 9.25959C24.9388 8.80072 25.0555 7.91956 25.6655 7.90737C25.9442 7.90133 26.1112 8.13897 26.1174 8.47022C26.1368 9.55132 25.149 11.5825 25.1804 13.2266C25.1752 13.3706 25.2043 13.4569 25.2568 13.4568C26.085 13.4404 27.6512 8.64417 28.0041 7.87117C28.2052 7.44598 28.6414 6.48921 29.2655 6.47754C29.3928 6.48503 29.513 6.53909 29.6035 6.62956C29.6939 6.72003 29.7483 6.84065 29.7564 6.96868C29.7694 7.66978 29.2541 7.68747 29.2689 8.5044C29.2818 9.20753 29.7194 9.83279 30.6305 9.92302C31.0536 9.9446 31.5864 9.83414 31.6 10.4622Z" fill="white"/>
<path d="M31.5326 8.68667C31.9366 8.67913 32.0737 8.96237 32.0791 9.31592C32.0934 10.0922 31.2852 14.1872 31.2978 14.9553C31.2909 15.1459 31.3655 15.2055 31.4907 15.202C31.6721 15.2086 32.2036 15.025 32.5241 15.0368C32.8109 15.031 33.1607 15.1819 33.1668 15.57C33.1735 15.887 32.856 16.0724 32.5194 16.1149C32.0757 16.1596 31.1048 16.1606 30.9119 16.6409C30.6883 17.242 30.5788 18.2026 30.4027 18.8866C29.8839 20.8984 28.5928 24.9513 26.0358 24.9998C24.6927 25.0238 24.2573 23.9457 24.2321 22.8015C24.1677 19.0035 26.765 17.0049 29.393 15.8319C30.2773 15.4358 30.1992 15.2522 30.3338 14.3189C30.6022 12.4786 30.7568 11.3877 30.9749 9.54153C31.0295 9.14956 31.1368 8.69451 31.5326 8.68667ZM26.093 23.9215C28.1309 23.8824 29.3758 19.3222 29.6849 17.583C29.71 17.457 29.7228 17.3289 29.723 17.2005C29.7191 16.9729 29.6397 16.8786 29.5024 16.8817C29.2645 16.9302 29.0414 17.0348 28.8515 17.1869C27.0832 18.365 25.2241 19.9297 25.2764 22.726C25.2804 23.3394 25.471 23.9292 26.0931 23.9175L26.093 23.9215Z" fill="white"/>
<path d="M32.0297 7.74856C32.0928 7.72015 32.1496 7.67914 32.1965 7.62799L32.1966 7.62393C32.4471 7.33864 32.4525 6.57728 32.7627 6.0911C32.8823 5.94751 32.9537 5.76962 32.9668 5.58276C32.9486 5.45267 32.8853 5.33326 32.7879 5.24569C32.6906 5.15811 32.5656 5.10804 32.4351 5.10433C31.7807 5.11692 31.2886 6.557 31.3013 7.20935C31.2947 7.28326 31.3034 7.35775 31.3269 7.42809C31.3504 7.49844 31.3881 7.56311 31.4378 7.618C31.4874 7.6729 31.5478 7.71682 31.6152 7.74699C31.6826 7.77716 31.7554 7.79291 31.8292 7.79325C31.8984 7.79218 31.9666 7.77697 32.0297 7.74856Z" fill="white"/>
<path d="M33.6591 8.65454C33.7293 8.65351 33.7989 8.6669 33.8637 8.69394C33.9285 8.72098 33.9871 8.76108 34.036 8.81175C34.0848 8.86243 34.1228 8.9226 34.1477 8.98861C34.1725 9.05461 34.1837 9.12503 34.1805 9.19554C34.185 9.5186 34.0694 9.92256 34.0744 10.2314C34.0846 10.841 34.2933 11.267 34.8447 11.2568C36.7796 11.222 37.2922 8.88101 37.8437 7.63805C37.9557 7.3883 38.1662 6.92689 38.4752 6.92196C38.9215 6.91393 39.0176 7.49419 39.0275 8.00225C39.0639 10.0649 38.4049 13.4403 38.4134 13.8183C38.4176 14.0378 38.476 14.0968 38.6053 14.0934C38.7346 14.09 39.0265 13.9992 39.3537 13.9929C39.7798 13.9861 39.9954 14.2195 40 14.4836C39.9977 14.5994 39.9583 14.7113 39.8878 14.8028C39.8172 14.8942 39.7191 14.9603 39.6082 14.9912C38.6841 15.3188 38.1538 14.8019 37.8007 16.247C37.6728 16.7704 37.6002 17.3282 37.4694 17.8738C36.9428 20.0437 35.6508 23.8996 32.9404 23.9486C31.6821 23.9715 31.0351 23.0523 31.0035 21.6945C30.9422 18.3679 33.625 15.8464 36.165 14.8184C37.5228 14.2771 37.6203 11.4721 37.6118 11.0352C37.6157 10.9277 37.596 10.8031 37.5556 10.8037C37.4831 10.801 36.1867 12.3782 34.8356 12.3998C33.7773 12.4199 33.013 11.5065 32.988 10.1896C32.9862 9.83547 33.0268 9.48242 33.1088 9.13802C33.1306 9.00574 33.1974 8.88519 33.2978 8.79699C33.3982 8.7088 33.5259 8.65845 33.6591 8.65454ZM36.5117 15.7815C35.2615 15.8048 32.0178 19.1546 32.0644 21.5486C32.0772 22.3106 32.3943 22.8624 32.9477 22.8522C35.2503 22.8086 36.8173 17.5433 36.793 16.1513C36.7847 15.8788 36.6753 15.7794 36.5117 15.7815Z" fill="white"/>

</svg>
