<svg width="514" height="166" viewBox="0 0 514 166" fill="none" xmlns="http://www.w3.org/2000/svg">
<mask id="path-1-outside-1_30_3337" maskUnits="userSpaceOnUse" x="-1" y="0" width="515" height="166" fill="black">
<rect fill="white" x="-1" width="515" height="166"/>
<path d="M333.329 5.03093C334.004 5.74982 334.766 6.50027 335.613 7.28275C337.752 9.10498 338.855 10.8796 338.921 12.6062C333.234 33.8837 328.727 57.4111 325.401 83.1888C325.005 86.1808 324.718 88.7938 324.538 91.0272C324.39 93.0271 324.138 95.0177 323.785 96.9919C323.657 97.9661 323.475 98.9321 323.238 99.8849C323.089 100.487 322.919 101.083 322.727 101.674C322.202 103.152 321.392 104.513 320.342 105.681C319.105 107.084 317.716 108.347 316.202 109.448C314.761 110.627 313.158 111.593 311.442 112.316C307.857 113.632 305.775 112.822 305.196 109.886C305.136 109.737 305.059 109.597 304.966 109.468C304.906 109.385 304.839 109.307 304.766 109.234C304.684 109.152 304.594 109.077 304.497 109.01C304.183 108.793 303.812 108.672 303.43 108.663C302.705 108.684 301.982 108.579 301.295 108.35C299.505 107.876 298.747 105.982 299.02 102.668C299.665 98.0855 300.32 92.563 300.986 86.1012C301.651 79.5632 302.648 72.3627 303.979 64.499C307.112 45.4452 311.863 28.0001 318.232 12.1635C318.414 11.8495 318.603 11.5024 318.801 11.1228C319.105 10.5369 319.428 9.87338 319.769 9.13168C319.913 8.79674 320.07 8.46812 320.241 8.14678C320.494 7.67011 320.776 7.20945 321.085 6.76724C321.393 6.32698 321.728 5.90467 322.089 5.50324C324.54 2.54709 327.911 1.4622 332.201 2.2471C332.255 3.27423 332.652 4.25428 333.329 5.03093Z"/>
<path d="M364.854 8.96227C363.956 8.79529 363.039 8.7584 362.13 8.85305C361.408 8.95936 360.256 9.20255 358.673 9.58359C355.237 10.8 352.804 12.7334 351.374 15.3847C350.117 17.5186 349.821 19.4787 350.486 21.2645C351.135 22.9678 352.754 24.2935 355.345 25.241C358.006 26.1759 361.255 25.9652 365.093 24.6099C368.875 22.3664 371.048 20.0617 371.614 17.6958C372.263 15.3197 371.9 13.3314 370.527 11.731C369.429 9.74281 367.538 8.82004 364.854 8.96227Z"/>
<path d="M434.155 27.652C428.943 27.3205 422.609 28.9029 415.152 32.3988C408.088 35.7555 403.312 39.3625 400.824 43.2196L400.739 42.6182C400.456 40.6299 399.753 39.1388 398.629 38.1446C396.487 36.3224 392.876 36.869 387.798 39.7848C386.675 39.3674 385.802 39.4072 385.234 39.8994C384.735 40.3965 383.682 42.2803 382.105 45.6005C381.424 47.1679 380.166 51.9167 378.334 59.8464C373.155 82.3796 371.75 95.3546 374.118 98.7714C375.241 99.815 376.616 100.551 378.109 100.909C382.965 102.191 388.142 101.711 393.64 99.467C397.052 98.0918 398.79 96.4613 398.853 94.576C398.863 94.327 398.879 94.1051 398.903 93.91C398.964 93.3969 399.073 93.0712 399.232 92.9309C399.48 92.7159 399.74 92.5149 400.011 92.3295C400.487 92.1324 400.907 91.8218 401.233 91.4247C401.449 91.2524 401.665 91.0039 401.88 90.6791C402.163 90.2534 402.447 89.6967 402.73 89.0088C402.912 88.6147 403.098 88.1899 403.289 87.7346C403.69 86.7789 404.108 85.6891 404.546 84.4659C404.913 83.5514 405.286 82.6034 405.665 81.6228C405.843 81.1612 406.023 80.6923 406.203 80.2161L406.51 79.404L406.796 78.6405L409.325 72.1787C412.318 64.3315 414.464 59.7852 415.761 58.5391C416.317 57.0358 417.278 55.715 418.54 54.7219C420.163 53.4326 421.392 53.138 422.226 53.837C423.261 54.7549 423.462 57.3397 422.83 61.5909C421.835 65.1961 421.078 68.8624 420.565 72.566C419.937 76.8177 419.048 81.5549 417.901 86.7769C417.482 89.0404 418.184 90.5316 420.006 91.2504C421.843 92.0523 424.029 92.1538 426.567 91.5538C429.308 90.9762 431.908 89.8627 434.215 88.2783C436.622 86.791 438.467 84.5523 439.463 81.9107C440.995 79.1191 442.269 76.194 443.27 73.1728C443.417 72.5811 443.569 71.9607 443.724 71.3122C443.901 70.5739 444.082 69.7992 444.267 68.9871C444.697 67.377 445.305 65.2927 446.093 62.7345C448.222 52.8827 448.538 44.9579 447.042 38.9601C445.229 31.862 440.933 28.0928 434.155 27.652Z"/>
<path d="M146.079 68.4803C142.577 67.7411 138.932 68.1236 135.662 69.574C131.861 71.0851 129.624 73.2388 128.952 76.0358C127.116 79.8831 125.421 85.3042 123.868 92.2994C120.542 106.482 118.853 118.027 118.799 126.934C118.074 131.69 119.031 135.27 121.668 137.676C122.768 138.653 124.09 139.351 125.52 139.709C126.842 140.148 128.246 140.287 129.63 140.117C130.919 140.031 132.169 139.646 133.282 138.993C134.26 138.528 135.025 137.711 135.422 136.707C135.782 135.759 136.839 135.121 138.596 134.793C139.309 134.614 140.052 134.385 140.835 134.112C143.569 133.158 145.031 128.993 145.221 121.616C145.065 117.067 145.828 109.122 147.511 97.7821C148.119 93.3683 148.784 89.0705 149.506 84.8882C150.298 80.6137 150.938 77.0134 151.427 74.0873C151.34 71.1676 149.558 69.2987 146.079 68.4803Z"/>
<path d="M148.953 39.1737C151.64 39.0446 153.532 39.964 154.63 41.9323C156.004 43.5361 156.366 45.5277 155.717 47.9067C155.149 50.2765 152.973 52.5807 149.192 54.8209C145.357 56.1762 142.109 56.3868 139.449 55.4524C136.854 54.5078 135.233 53.1826 134.584 51.4759C133.922 49.6896 134.22 47.7295 135.478 45.5957C136.907 42.9449 139.339 41.011 142.771 39.795C143.477 39.6237 144.097 39.4805 144.632 39.365C145.298 39.2213 145.832 39.1213 146.233 39.064C147.141 38.9703 148.056 39.0072 148.953 39.1737Z"/>
<path d="M120.416 76.1154C121.186 74.9523 121.673 73.6267 121.838 72.2432C121.974 70.8899 121.737 69.5259 121.154 68.2964C120.877 67.6998 120.455 67.1799 119.928 66.7838C119.681 66.5984 119.415 66.4426 119.134 66.3188C118.978 66.2504 118.818 66.1916 118.654 66.1431C118.557 66.114 118.457 66.0887 118.357 66.0669L118.289 66.0528L118.216 66.0392L118.131 66.0251C116.96 65.679 115.734 65.5611 114.519 65.6771L112.828 65.9106C112.057 66.0067 111.279 66.0334 110.503 65.9902C110.125 66.0873 109.758 66.1824 109.403 66.2761C109.028 66.3751 108.667 66.4717 108.318 66.5669C108.114 66.6217 107.916 66.6766 107.721 66.7304L107.362 66.8304L106.717 67.0139L105.305 67.4566C105.04 67.5372 104.74 67.6362 104.405 67.7542C104.141 67.8469 103.854 67.9517 103.543 68.0677C103.676 67.7149 103.884 67.394 104.152 67.1285C104.446 66.9198 104.726 66.2683 104.98 65.1747L107.789 56.3271C108.358 54.5331 108.812 53.121 109.161 52.0973C109.527 51.1328 109.839 50.1488 110.094 49.1499C110.143 49.0047 110.19 48.8591 110.237 48.713C110.284 48.5606 110.331 48.4077 110.376 48.2543L110.441 48.0271L110.481 47.8844C110.61 47.4184 110.726 46.9485 110.827 46.4757C111.09 45.4549 111.374 43.9851 111.681 42.0668C111.831 41.1013 111.763 40.1149 111.481 39.179C111.2 38.2437 110.712 37.3825 110.054 36.6588C108.808 35.0807 107.149 33.8769 105.26 33.1794C103.571 32.3979 101.708 32.0639 99.8514 32.21C98.0624 32.2993 96.9648 32.944 96.5589 34.1434C95.5987 35.0642 94.5059 35.8365 93.3161 36.435C92.4616 36.7962 91.7663 37.0976 91.2309 37.3393C90.2331 37.8864 89.4429 39.2616 88.8612 41.4653L87.9282 42.6978L87.878 43.1948C85.5248 48.1921 83.995 53.5341 83.3485 59.0163C82.9758 61.6011 82.718 64.1277 82.5748 66.5965C82.5071 67.7712 82.4374 68.9371 82.3663 70.0938L82.2835 71.435C82.2318 72.2559 82.1792 73.0718 82.1261 73.8834C81.5039 73.9145 80.8974 74.0844 80.3498 74.3805C80.2957 74.4451 80.2392 74.5077 80.1807 74.5684C80.1422 74.6082 80.1027 74.647 80.0618 74.6849L79.9853 74.7538L79.921 74.8082C79.771 74.9072 78.9232 75.2751 77.3715 75.8964C75.4826 76.7289 73.6498 77.6823 71.8837 78.7497C70.7461 79.4123 68.9419 80.2773 66.4709 81.3442C64.4251 82.5305 63.1482 83.9339 62.639 85.5542C62.1309 86.9852 62.0866 88.5394 62.5124 89.9966C62.9387 91.4543 63.8137 92.7411 65.0141 93.6765C66.0412 94.5906 67.3902 95.0624 68.7656 94.9886H68.8854C70.3889 94.7439 71.8189 94.1682 73.071 93.3037C73.3925 93.0814 73.8588 92.8868 74.4702 92.7198C74.9983 92.5756 75.6346 92.4523 76.3786 92.3494C74.1336 109.561 73.2308 125.241 73.6697 139.391C73.6147 139.696 73.603 140.007 73.6337 140.313C73.6415 140.394 73.6527 140.475 73.6668 140.555L73.6741 140.596C73.6834 140.644 73.6931 140.692 73.7043 140.74C73.7224 140.816 73.7428 140.892 73.7662 140.967C73.8734 141.313 74.0356 141.638 74.2466 141.931C74.3465 142.07 74.4571 142.201 74.5779 142.323C75.3462 143.116 76.7211 143.863 78.7035 144.565C81.0367 145.303 83.5 145.542 85.9326 145.266C86.2498 145.049 86.5976 144.882 86.9655 144.769C87.669 144.594 88.335 144.292 88.9308 143.88C90.5605 142.673 92.5098 136.155 94.7777 124.325C95.5129 120.793 96.1862 117.148 96.7986 113.39C97.4071 109.552 97.9957 105.877 98.5647 102.365C99.203 98.7661 99.7618 95.4643 100.241 92.4586C100.783 89.3569 101.322 86.7905 101.857 84.7591V84.6396L102.461 83.6955C105.411 83.1189 110.247 81.3806 116.969 78.4813C117.678 78.3516 118.352 78.0735 118.946 77.6658C119.232 77.4697 119.496 77.2454 119.735 76.9974C119.841 76.8872 119.943 76.7721 120.039 76.6532C120.176 76.4828 120.302 76.3032 120.416 76.1154Z"/>
<path d="M39.495 101.898C46.2769 105.274 51.1645 108.837 54.1578 112.585C58.242 117.731 59.6121 123.908 58.2684 131.115C58.9904 133.309 57.3773 136.394 53.4295 140.37C52.4979 141.315 51.6746 142.165 50.9599 142.92C48.0181 146.043 44.4728 148.54 40.5377 150.262C36.5582 152.194 32.3157 153.534 27.9459 154.238C23.8452 154.924 19.663 154.971 15.5481 154.378C11.6169 153.788 8.39555 152.444 5.88452 150.346C2.92769 147.984 1.65902 145.384 2.07802 142.548C2.31333 141.385 2.95059 140.342 3.8792 139.6C4.75031 138.818 5.93275 138.487 7.42602 138.606C7.93514 138.585 8.35657 138.482 8.68884 138.301C8.9914 138.136 9.21989 137.906 9.3719 137.611C9.55314 137.287 9.71684 136.954 9.86202 136.613C10.0296 136.219 10.1724 135.816 10.2898 135.405C10.3448 135.173 10.4062 134.944 10.4739 134.716L10.5105 134.595L10.5461 134.48L10.5904 134.341L10.6333 134.215C10.7629 133.833 10.9095 133.457 11.0732 133.088C11.2072 132.717 11.4464 132.391 11.7611 132.152C12.0764 131.912 12.4539 131.768 12.8491 131.737C27.0475 130.159 34.225 127.889 34.3814 124.927C33.1746 124.127 31.845 123.527 30.4453 123.152C29.5503 122.875 28.6397 122.601 27.7145 122.329C27.1343 122.158 26.5477 121.989 25.9552 121.82C22.1936 120.716 19.5744 119.287 18.0977 117.531C16.4543 116.944 15.0176 115.186 13.7869 112.257C13.4001 111.405 13.0941 110.52 12.8729 109.614L12.8378 109.466L12.8135 109.36L12.7945 109.275C12.774 109.181 12.754 109.087 12.735 108.993L12.716 108.895C12.6868 108.745 12.6605 108.594 12.6361 108.443C12.6196 108.341 12.604 108.238 12.5899 108.136C12.3838 106.783 12.4398 105.403 12.7545 104.07C12.0725 100.985 13.516 97.272 17.0848 92.9309C18.2482 91.5354 19.4993 90.2156 20.8314 88.9792C22.3446 87.5409 24.7114 86.025 27.9308 84.4309C31.0358 82.8849 34.2713 81.6126 37.5993 80.6287C40.505 79.6749 43.5086 79.0497 46.5546 78.7647C49.3117 78.5395 51.3306 78.9089 52.611 79.8729C54.0136 80.8704 55.1659 82.1767 55.9785 83.6907C56.8974 85.1328 57.3885 86.8041 57.3953 88.5123C57.2589 92.2033 54.6368 95.1012 49.528 97.2055C42.9892 99.0879 39.8975 100.414 40.2536 101.182C40.2785 101.341 40.0241 101.579 39.495 101.898Z"/>
<path fill-rule="evenodd" clip-rule="evenodd" d="M204.898 56.4465C208.317 55.8005 211.358 56.1514 214.018 57.5004C216.666 58.761 218.905 60.7381 220.479 63.2064C223.236 67.6367 224.377 73.398 223.901 80.4894C223.632 84.363 223.255 88.6608 222.769 93.3829C222.244 98.1685 221.176 102.879 219.586 107.425C217.882 112.27 215.495 116.849 212.497 121.025C209.427 125.375 205.155 129.077 199.68 132.129C196.417 133.975 193.432 134.883 190.725 134.853C188.121 134.896 186.125 134.646 184.738 134.102C183.397 133.603 182.293 132.62 181.645 131.348C180.68 136.14 179.803 140.958 179.011 145.803C178.325 150.664 177.102 155.435 175.364 160.029C173.714 161.403 171.82 162.459 169.781 163.14C167.584 164.022 165.173 164.231 162.857 163.742C161.766 163.586 160.721 163.202 159.79 162.614C159.562 162.47 159.341 162.314 159.13 162.147C158.897 161.964 158.675 161.767 158.465 161.559C158.254 161.349 158.055 161.129 157.87 160.897C157.725 160.715 157.587 160.527 157.459 160.332C156.129 158.524 155.282 156.41 154.994 154.188C154.552 151.067 154.779 147.157 155.677 142.458C156.988 135.496 158.112 130.112 159.05 126.308C159.427 124.645 159.746 123.241 160.007 122.097C160.341 120.628 160.579 119.586 160.721 118.972C160.967 117.792 161.205 116.574 161.435 115.318C162.552 110.414 163.307 106.47 163.7 103.488C164.165 100.403 164.608 97.7287 165.027 95.4658V95.3463C165.388 91.3902 166.111 87.4754 167.187 83.6504C168.391 79.4026 169.252 76.7911 169.771 75.8168C170.732 74.4324 172.073 73.3524 173.633 72.7054C175.212 72.1345 176.837 71.702 178.492 71.4127L178.851 71.3632L181.226 71.6413C182.679 68.4954 184.789 65.6941 187.416 63.4263C190.042 61.1579 193.125 59.475 196.457 58.4891C199.227 57.6402 202.046 56.9577 204.898 56.4465ZM197.664 96.6336C198.699 93.9794 199.257 91.1645 199.316 88.3181V88.338C199.426 85.6289 199.316 83.9242 198.956 83.2378C198.597 82.5519 198.163 82.249 197.6 82.3281C197.048 82.4262 196.532 82.666 196.103 83.0242C195.691 83.297 195.323 83.6324 195.015 84.0183C194.811 84.3115 194.851 84.3018 195.14 84.0183C194.959 84.2911 194.787 84.5697 194.625 84.8532C194.404 85.2391 194.202 85.6352 194.017 86.0396C193.867 86.3677 193.729 86.7017 193.604 87.0405C193.263 88.1263 193.133 89.2666 193.219 90.4005C192.491 92.2198 191.104 94.0061 189.058 95.7589L188.325 98.4331C187.796 100.63 187.327 102.859 186.918 105.119C186.509 107.379 186.01 109.612 185.421 111.819C186.22 112.396 186.937 113.078 187.552 113.847C191.5 109.297 194.871 103.559 197.664 96.6336Z"/>
<path d="M361.98 38.249C358.479 37.5097 354.833 37.8922 351.563 39.3426C347.758 40.8537 345.52 43.0075 344.848 45.8044C343.019 49.6518 341.326 55.0728 339.769 62.0681C336.443 76.2508 334.752 87.7958 334.695 96.7031C333.97 101.462 334.927 105.042 337.564 107.445C338.665 108.422 339.986 109.119 341.416 109.478C342.74 109.917 344.146 110.056 345.532 109.885C346.82 109.799 348.071 109.414 349.183 108.762C350.157 108.303 350.921 107.495 351.324 106.5C351.68 105.553 352.735 104.915 354.492 104.587C355.205 104.407 355.953 104.179 356.732 103.906C359.466 102.951 360.927 98.786 361.117 91.4097C360.967 86.8599 361.732 78.907 363.412 67.5508C364.017 63.137 364.683 58.8391 365.408 54.6568C366.196 50.3823 366.834 46.782 367.323 43.856C367.237 40.9396 365.456 39.0708 361.98 38.249Z"/>
<path fill-rule="evenodd" clip-rule="evenodd" d="M509.403 46.6345C509.059 45.3768 508.904 44.7006 508.994 44.6113C510.13 42.8366 510.833 40.8222 511.05 38.7291C511.266 36.6355 510.99 34.5206 510.242 32.5527C508.748 28.351 506.139 25.5342 502.414 24.1027C500.159 24.4172 498.524 25.9084 497.51 28.5762C494.882 25.5939 491.874 23.728 488.485 22.9795C485.635 22.5538 482.732 22.6295 479.909 23.2027C473.769 24.3857 468.316 27.5574 463.55 32.7168C456.565 40.146 453.2 49.3945 453.453 60.4623C453.565 63.5826 454.001 66.6824 454.754 69.7128C455.482 72.4117 456.634 74.978 458.167 77.3177C459.506 79.3729 461.303 81.0913 463.42 82.3383C465.37 83.5004 467.647 83.9989 469.906 83.7596C472.246 83.5111 474.351 83.3023 476.207 83.1237C482.729 82.2883 487.219 79.7817 489.677 75.6028C488.433 80.186 487.069 83.8892 485.586 86.7123C482.899 92.064 480.326 95.608 477.868 97.3443C476.451 98.3583 475.256 99.1787 474.281 99.8048C473.102 100.686 471.856 101.476 470.554 102.166C468.958 103.041 466.755 103.39 463.944 103.215C461.34 102.191 459.246 101.871 457.663 102.255C454.41 103.034 452.736 105.105 452.639 108.468C452.449 111.193 453.447 113.585 455.633 115.646C457.349 117.366 460.157 118.692 464.059 119.623C474.636 120.835 483.737 118.541 491.363 112.738C495.09 109.92 498.266 106.445 500.733 102.484C503.187 98.7097 505.092 94.608 506.39 90.301C507.627 86.2881 508.625 82.9626 509.383 80.3248C510.268 77.5522 510.934 74.7154 511.379 71.8404C512.64 62.8404 511.981 54.4384 509.403 46.6345ZM486.649 57.9028C484.936 61.3788 482.472 64.434 479.435 66.8499C478.19 67.9051 476.763 68.7269 475.224 69.2754C473.882 69.6283 472.869 69.3997 472.181 68.5993C471.572 67.7843 471.542 66.6906 472.086 65.3038C472.758 63.8364 473.642 62.4749 474.71 61.2628C475.918 59.8633 477.381 58.7027 479.021 57.8431C480.687 56.8737 482.069 56.4762 483.157 56.6499C484.244 56.8242 485.002 56.963 485.427 57.0674C485.618 57.0795 485.809 57.0989 485.998 57.1266C486.23 57.1601 486.461 57.2052 486.689 57.2615C486.625 57.4688 486.611 57.6887 486.649 57.9028Z"/>
<path fill-rule="evenodd" clip-rule="evenodd" d="M275.766 46.5252C279.185 45.8826 282.225 46.2321 284.886 47.5742C287.531 48.8368 289.767 50.8163 291.336 53.2856C294.091 57.7159 295.231 63.4753 294.759 70.5632C294.625 72.5 294.463 74.5421 294.274 76.6896C294.085 78.8414 293.869 81.0986 293.626 83.462C293.102 88.2458 292.034 92.9547 290.443 97.4991C288.751 102.344 286.376 106.925 283.389 111.103C280.319 115.451 276.047 119.152 270.572 122.208C267.29 124.047 264.297 124.955 261.592 124.932C258.988 124.968 256.993 124.716 255.606 124.176C254.264 123.681 253.159 122.699 252.513 121.427C251.548 126.219 250.67 131.037 249.879 135.882C249.193 140.743 247.97 145.514 246.231 150.108C244.579 151.482 242.684 152.537 240.644 153.219C238.448 154.099 236.04 154.308 233.724 153.821C232.634 153.664 231.589 153.28 230.659 152.692C229.728 152.104 228.933 151.327 228.326 150.411C226.997 148.602 226.149 146.486 225.862 144.263C225.42 141.141 225.646 137.232 226.54 132.537C227.854 125.575 228.98 120.19 229.918 116.382C230.779 112.588 231.336 110.143 231.589 109.046C231.698 108.529 231.804 108 231.91 107.461C232.042 106.786 232.172 106.096 232.302 105.397C233.414 100.493 234.168 96.5497 234.567 93.5673C235.033 90.482 235.475 87.8065 235.894 85.5396V85.4202C236.256 81.466 236.98 77.5531 238.055 73.7296C239.259 69.4779 240.12 66.8668 240.639 65.896C241.6 64.5116 242.941 63.4311 244.5 62.7841C246.079 62.2137 247.705 61.7812 249.36 61.4919L249.719 61.4424L252.093 61.7205C253.546 58.5736 255.656 55.7718 258.283 53.5025C260.909 51.2337 263.992 49.5498 267.325 48.5635C270.095 47.716 272.914 47.0354 275.766 46.5252ZM268.527 86.708C269.565 84.0542 270.126 81.2394 270.184 78.3919V78.4167C270.293 75.7076 270.173 73.983 269.814 73.2971C269.455 72.6112 269.021 72.3029 268.458 72.3826C267.907 72.4845 267.391 72.7257 266.961 73.0835C266.548 73.3563 266.181 73.6917 265.873 74.0776C265.669 74.3659 265.708 74.3606 265.998 74.0776C265.367 75.0246 264.85 76.0425 264.456 77.1095C264.116 78.1953 263.986 79.3356 264.072 80.4695C263.344 82.2888 261.957 84.0751 259.912 85.8279L259.178 88.5021C258.659 90.6956 258.195 92.9241 257.786 95.1876C257.377 97.4511 256.878 99.6859 256.289 101.893C257.091 102.467 257.807 103.15 258.42 103.921C262.368 99.3646 265.737 93.627 268.527 86.708Z"/>
</mask>
<path d="M333.329 5.03093C334.004 5.74982 334.766 6.50027 335.613 7.28275C337.752 9.10498 338.855 10.8796 338.921 12.6062C333.234 33.8837 328.727 57.4111 325.401 83.1888C325.005 86.1808 324.718 88.7938 324.538 91.0272C324.39 93.0271 324.138 95.0177 323.785 96.9919C323.657 97.9661 323.475 98.9321 323.238 99.8849C323.089 100.487 322.919 101.083 322.727 101.674C322.202 103.152 321.392 104.513 320.342 105.681C319.105 107.084 317.716 108.347 316.202 109.448C314.761 110.627 313.158 111.593 311.442 112.316C307.857 113.632 305.775 112.822 305.196 109.886C305.136 109.737 305.059 109.597 304.966 109.468C304.906 109.385 304.839 109.307 304.766 109.234C304.684 109.152 304.594 109.077 304.497 109.01C304.183 108.793 303.812 108.672 303.43 108.663C302.705 108.684 301.982 108.579 301.295 108.35C299.505 107.876 298.747 105.982 299.02 102.668C299.665 98.0855 300.32 92.563 300.986 86.1012C301.651 79.5632 302.648 72.3627 303.979 64.499C307.112 45.4452 311.863 28.0001 318.232 12.1635C318.414 11.8495 318.603 11.5024 318.801 11.1228C319.105 10.5369 319.428 9.87338 319.769 9.13168C319.913 8.79674 320.07 8.46812 320.241 8.14678C320.494 7.67011 320.776 7.20945 321.085 6.76724C321.393 6.32698 321.728 5.90467 322.089 5.50324C324.54 2.54709 327.911 1.4622 332.201 2.2471C332.255 3.27423 332.652 4.25428 333.329 5.03093Z" fill="#000000"/>
<path d="M364.854 8.96227C363.956 8.79529 363.039 8.7584 362.13 8.85305C361.408 8.95936 360.256 9.20255 358.673 9.58359C355.237 10.8 352.804 12.7334 351.374 15.3847C350.117 17.5186 349.821 19.4787 350.486 21.2645C351.135 22.9678 352.754 24.2935 355.345 25.241C358.006 26.1759 361.255 25.9652 365.093 24.6099C368.875 22.3664 371.048 20.0617 371.614 17.6958C372.263 15.3197 371.9 13.3314 370.527 11.731C369.429 9.74281 367.538 8.82004 364.854 8.96227Z" fill="#000000"/>
<path d="M434.155 27.652C428.943 27.3205 422.609 28.9029 415.152 32.3988C408.088 35.7555 403.312 39.3625 400.824 43.2196L400.739 42.6182C400.456 40.6299 399.753 39.1388 398.629 38.1446C396.487 36.3224 392.876 36.869 387.798 39.7848C386.675 39.3674 385.802 39.4072 385.234 39.8994C384.735 40.3965 383.682 42.2803 382.105 45.6005C381.424 47.1679 380.166 51.9167 378.334 59.8464C373.155 82.3796 371.75 95.3546 374.118 98.7714C375.241 99.815 376.616 100.551 378.109 100.909C382.965 102.191 388.142 101.711 393.64 99.467C397.052 98.0918 398.79 96.4613 398.853 94.576C398.863 94.327 398.879 94.1051 398.903 93.91C398.964 93.3969 399.073 93.0712 399.232 92.9309C399.48 92.7159 399.74 92.5149 400.011 92.3295C400.487 92.1324 400.907 91.8218 401.233 91.4247C401.449 91.2524 401.665 91.0039 401.88 90.6791C402.163 90.2534 402.447 89.6967 402.73 89.0088C402.912 88.6147 403.098 88.1899 403.289 87.7346C403.69 86.7789 404.108 85.6891 404.546 84.4659C404.913 83.5514 405.286 82.6034 405.665 81.6228C405.843 81.1612 406.023 80.6923 406.203 80.2161L406.51 79.404L406.796 78.6405L409.325 72.1787C412.318 64.3315 414.464 59.7852 415.761 58.5391C416.317 57.0358 417.278 55.715 418.54 54.7219C420.163 53.4326 421.392 53.138 422.226 53.837C423.261 54.7549 423.462 57.3397 422.83 61.5909C421.835 65.1961 421.078 68.8624 420.565 72.566C419.937 76.8177 419.048 81.5549 417.901 86.7769C417.482 89.0404 418.184 90.5316 420.006 91.2504C421.843 92.0523 424.029 92.1538 426.567 91.5538C429.308 90.9762 431.908 89.8627 434.215 88.2783C436.622 86.791 438.467 84.5523 439.463 81.9107C440.995 79.1191 442.269 76.194 443.27 73.1728C443.417 72.5811 443.569 71.9607 443.724 71.3122C443.901 70.5739 444.082 69.7992 444.267 68.9871C444.697 67.377 445.305 65.2927 446.093 62.7345C448.222 52.8827 448.538 44.9579 447.042 38.9601C445.229 31.862 440.933 28.0928 434.155 27.652Z" fill="#000000"/>
<path d="M146.079 68.4803C142.577 67.7411 138.932 68.1236 135.662 69.574C131.861 71.0851 129.624 73.2388 128.952 76.0358C127.116 79.8831 125.421 85.3042 123.868 92.2994C120.542 106.482 118.853 118.027 118.799 126.934C118.074 131.69 119.031 135.27 121.668 137.676C122.768 138.653 124.09 139.351 125.52 139.709C126.842 140.148 128.246 140.287 129.63 140.117C130.919 140.031 132.169 139.646 133.282 138.993C134.26 138.528 135.025 137.711 135.422 136.707C135.782 135.759 136.839 135.121 138.596 134.793C139.309 134.614 140.052 134.385 140.835 134.112C143.569 133.158 145.031 128.993 145.221 121.616C145.065 117.067 145.828 109.122 147.511 97.7821C148.119 93.3683 148.784 89.0705 149.506 84.8882C150.298 80.6137 150.938 77.0134 151.427 74.0873C151.34 71.1676 149.558 69.2987 146.079 68.4803Z" fill="#000000"/>
<path d="M148.953 39.1737C151.64 39.0446 153.532 39.964 154.63 41.9323C156.004 43.5361 156.366 45.5277 155.717 47.9067C155.149 50.2765 152.973 52.5807 149.192 54.8209C145.357 56.1762 142.109 56.3868 139.449 55.4524C136.854 54.5078 135.233 53.1826 134.584 51.4759C133.922 49.6896 134.22 47.7295 135.478 45.5957C136.907 42.9449 139.339 41.011 142.771 39.795C143.477 39.6237 144.097 39.4805 144.632 39.365C145.298 39.2213 145.832 39.1213 146.233 39.064C147.141 38.9703 148.056 39.0072 148.953 39.1737Z" fill="#000000"/>
<path d="M120.416 76.1154C121.186 74.9523 121.673 73.6267 121.838 72.2432C121.974 70.8899 121.737 69.5259 121.154 68.2964C120.877 67.6998 120.455 67.1799 119.928 66.7838C119.681 66.5984 119.415 66.4426 119.134 66.3188C118.978 66.2504 118.818 66.1916 118.654 66.1431C118.557 66.114 118.457 66.0887 118.357 66.0669L118.289 66.0528L118.216 66.0392L118.131 66.0251C116.96 65.679 115.734 65.5611 114.519 65.6771L112.828 65.9106C112.057 66.0067 111.279 66.0334 110.503 65.9902C110.125 66.0873 109.758 66.1824 109.403 66.2761C109.028 66.3751 108.667 66.4717 108.318 66.5669C108.114 66.6217 107.916 66.6766 107.721 66.7304L107.362 66.8304L106.717 67.0139L105.305 67.4566C105.04 67.5372 104.74 67.6362 104.405 67.7542C104.141 67.8469 103.854 67.9517 103.543 68.0677C103.676 67.7149 103.884 67.394 104.152 67.1285C104.446 66.9198 104.726 66.2683 104.98 65.1747L107.789 56.3271C108.358 54.5331 108.812 53.121 109.161 52.0973C109.527 51.1328 109.839 50.1488 110.094 49.1499C110.143 49.0047 110.19 48.8591 110.237 48.713C110.284 48.5606 110.331 48.4077 110.376 48.2543L110.441 48.0271L110.481 47.8844C110.61 47.4184 110.726 46.9485 110.827 46.4757C111.09 45.4549 111.374 43.9851 111.681 42.0668C111.831 41.1013 111.763 40.1149 111.481 39.179C111.2 38.2437 110.712 37.3825 110.054 36.6588C108.808 35.0807 107.149 33.8769 105.26 33.1794C103.571 32.3979 101.708 32.0639 99.8514 32.21C98.0624 32.2993 96.9648 32.944 96.5589 34.1434C95.5987 35.0642 94.5059 35.8365 93.3161 36.435C92.4616 36.7962 91.7663 37.0976 91.2309 37.3393C90.2331 37.8864 89.4429 39.2616 88.8612 41.4653L87.9282 42.6978L87.878 43.1948C85.5248 48.1921 83.995 53.5341 83.3485 59.0163C82.9758 61.6011 82.718 64.1277 82.5748 66.5965C82.5071 67.7712 82.4374 68.9371 82.3663 70.0938L82.2835 71.435C82.2318 72.2559 82.1792 73.0718 82.1261 73.8834C81.5039 73.9145 80.8974 74.0844 80.3498 74.3805C80.2957 74.4451 80.2392 74.5077 80.1807 74.5684C80.1422 74.6082 80.1027 74.647 80.0618 74.6849L79.9853 74.7538L79.921 74.8082C79.771 74.9072 78.9232 75.2751 77.3715 75.8964C75.4826 76.7289 73.6498 77.6823 71.8837 78.7497C70.7461 79.4123 68.9419 80.2773 66.4709 81.3442C64.4251 82.5305 63.1482 83.9339 62.639 85.5542C62.1309 86.9852 62.0866 88.5394 62.5124 89.9966C62.9387 91.4543 63.8137 92.7411 65.0141 93.6765C66.0412 94.5906 67.3902 95.0624 68.7656 94.9886H68.8854C70.3889 94.7439 71.8189 94.1682 73.071 93.3037C73.3925 93.0814 73.8588 92.8868 74.4702 92.7198C74.9983 92.5756 75.6346 92.4523 76.3786 92.3494C74.1336 109.561 73.2308 125.241 73.6697 139.391C73.6147 139.696 73.603 140.007 73.6337 140.313C73.6415 140.394 73.6527 140.475 73.6668 140.555L73.6741 140.596C73.6834 140.644 73.6931 140.692 73.7043 140.74C73.7224 140.816 73.7428 140.892 73.7662 140.967C73.8734 141.313 74.0356 141.638 74.2466 141.931C74.3465 142.07 74.4571 142.201 74.5779 142.323C75.3462 143.116 76.7211 143.863 78.7035 144.565C81.0367 145.303 83.5 145.542 85.9326 145.266C86.2498 145.049 86.5976 144.882 86.9655 144.769C87.669 144.594 88.335 144.292 88.9308 143.88C90.5605 142.673 92.5098 136.155 94.7777 124.325C95.5129 120.793 96.1862 117.148 96.7986 113.39C97.4071 109.552 97.9957 105.877 98.5647 102.365C99.203 98.7661 99.7618 95.4643 100.241 92.4586C100.783 89.3569 101.322 86.7905 101.857 84.7591V84.6396L102.461 83.6955C105.411 83.1189 110.247 81.3806 116.969 78.4813C117.678 78.3516 118.352 78.0735 118.946 77.6658C119.232 77.4697 119.496 77.2454 119.735 76.9974C119.841 76.8872 119.943 76.7721 120.039 76.6532C120.176 76.4828 120.302 76.3032 120.416 76.1154Z" fill="#000000"/>
<path d="M39.495 101.898C46.2769 105.274 51.1645 108.837 54.1578 112.585C58.242 117.731 59.6121 123.908 58.2684 131.115C58.9904 133.309 57.3773 136.394 53.4295 140.37C52.4979 141.315 51.6746 142.165 50.9599 142.92C48.0181 146.043 44.4728 148.54 40.5377 150.262C36.5582 152.194 32.3157 153.534 27.9459 154.238C23.8452 154.924 19.663 154.971 15.5481 154.378C11.6169 153.788 8.39555 152.444 5.88452 150.346C2.92769 147.984 1.65902 145.384 2.07802 142.548C2.31333 141.385 2.95059 140.342 3.8792 139.6C4.75031 138.818 5.93275 138.487 7.42602 138.606C7.93514 138.585 8.35657 138.482 8.68884 138.301C8.9914 138.136 9.21989 137.906 9.3719 137.611C9.55314 137.287 9.71684 136.954 9.86202 136.613C10.0296 136.219 10.1724 135.816 10.2898 135.405C10.3448 135.173 10.4062 134.944 10.4739 134.716L10.5105 134.595L10.5461 134.48L10.5904 134.341L10.6333 134.215C10.7629 133.833 10.9095 133.457 11.0732 133.088C11.2072 132.717 11.4464 132.391 11.7611 132.152C12.0764 131.912 12.4539 131.768 12.8491 131.737C27.0475 130.159 34.225 127.889 34.3814 124.927C33.1746 124.127 31.845 123.527 30.4453 123.152C29.5503 122.875 28.6397 122.601 27.7145 122.329C27.1343 122.158 26.5477 121.989 25.9552 121.82C22.1936 120.716 19.5744 119.287 18.0977 117.531C16.4543 116.944 15.0176 115.186 13.7869 112.257C13.4001 111.405 13.0941 110.52 12.8729 109.614L12.8378 109.466L12.8135 109.36L12.7945 109.275C12.774 109.181 12.754 109.087 12.735 108.993L12.716 108.895C12.6868 108.745 12.6605 108.594 12.6361 108.443C12.6196 108.341 12.604 108.238 12.5899 108.136C12.3838 106.783 12.4398 105.403 12.7545 104.07C12.0725 100.985 13.516 97.272 17.0848 92.9309C18.2482 91.5354 19.4993 90.2156 20.8314 88.9792C22.3446 87.5409 24.7114 86.025 27.9308 84.4309C31.0358 82.8849 34.2713 81.6126 37.5993 80.6287C40.505 79.6749 43.5086 79.0497 46.5546 78.7647C49.3117 78.5395 51.3306 78.9089 52.611 79.8729C54.0136 80.8704 55.1659 82.1767 55.9785 83.6907C56.8974 85.1328 57.3885 86.8041 57.3953 88.5123C57.2589 92.2033 54.6368 95.1012 49.528 97.2055C42.9892 99.0879 39.8975 100.414 40.2536 101.182C40.2785 101.341 40.0241 101.579 39.495 101.898Z" fill="#000000"/>
<path fill-rule="evenodd" clip-rule="evenodd" d="M204.898 56.4465C208.317 55.8005 211.358 56.1514 214.018 57.5004C216.666 58.761 218.905 60.7381 220.479 63.2064C223.236 67.6367 224.377 73.398 223.901 80.4894C223.632 84.363 223.255 88.6608 222.769 93.3829C222.244 98.1685 221.176 102.879 219.586 107.425C217.882 112.27 215.495 116.849 212.497 121.025C209.427 125.375 205.155 129.077 199.68 132.129C196.417 133.975 193.432 134.883 190.725 134.853C188.121 134.896 186.125 134.646 184.738 134.102C183.397 133.603 182.293 132.62 181.645 131.348C180.68 136.14 179.803 140.958 179.011 145.803C178.325 150.664 177.102 155.435 175.364 160.029C173.714 161.403 171.82 162.459 169.781 163.14C167.584 164.022 165.173 164.231 162.857 163.742C161.766 163.586 160.721 163.202 159.79 162.614C159.562 162.47 159.341 162.314 159.13 162.147C158.897 161.964 158.675 161.767 158.465 161.559C158.254 161.349 158.055 161.129 157.87 160.897C157.725 160.715 157.587 160.527 157.459 160.332C156.129 158.524 155.282 156.41 154.994 154.188C154.552 151.067 154.779 147.157 155.677 142.458C156.988 135.496 158.112 130.112 159.05 126.308C159.427 124.645 159.746 123.241 160.007 122.097C160.341 120.628 160.579 119.586 160.721 118.972C160.967 117.792 161.205 116.574 161.435 115.318C162.552 110.414 163.307 106.47 163.7 103.488C164.165 100.403 164.608 97.7287 165.027 95.4658V95.3463C165.388 91.3902 166.111 87.4754 167.187 83.6504C168.391 79.4026 169.252 76.7911 169.771 75.8168C170.732 74.4324 172.073 73.3524 173.633 72.7054C175.212 72.1345 176.837 71.702 178.492 71.4127L178.851 71.3632L181.226 71.6413C182.679 68.4954 184.789 65.6941 187.416 63.4263C190.042 61.1579 193.125 59.475 196.457 58.4891C199.227 57.6402 202.046 56.9577 204.898 56.4465ZM197.664 96.6336C198.699 93.9794 199.257 91.1645 199.316 88.3181V88.338C199.426 85.6289 199.316 83.9242 198.956 83.2378C198.597 82.5519 198.163 82.249 197.6 82.3281C197.048 82.4262 196.532 82.666 196.103 83.0242C195.691 83.297 195.323 83.6324 195.015 84.0183C194.811 84.3115 194.851 84.3018 195.14 84.0183C194.959 84.2911 194.787 84.5697 194.625 84.8532C194.404 85.2391 194.202 85.6352 194.017 86.0396C193.867 86.3677 193.729 86.7017 193.604 87.0405C193.263 88.1263 193.133 89.2666 193.219 90.4005C192.491 92.2198 191.104 94.0061 189.058 95.7589L188.325 98.4331C187.796 100.63 187.327 102.859 186.918 105.119C186.509 107.379 186.01 109.612 185.421 111.819C186.22 112.396 186.937 113.078 187.552 113.847C191.5 109.297 194.871 103.559 197.664 96.6336Z" fill="#000000"/>
<path d="M361.98 38.249C358.479 37.5097 354.833 37.8922 351.563 39.3426C347.758 40.8537 345.52 43.0075 344.848 45.8044C343.019 49.6518 341.326 55.0728 339.769 62.0681C336.443 76.2508 334.752 87.7958 334.695 96.7031C333.97 101.462 334.927 105.042 337.564 107.445C338.665 108.422 339.986 109.119 341.416 109.478C342.74 109.917 344.146 110.056 345.532 109.885C346.82 109.799 348.071 109.414 349.183 108.762C350.157 108.303 350.921 107.495 351.324 106.5C351.68 105.553 352.735 104.915 354.492 104.587C355.205 104.407 355.953 104.179 356.732 103.906C359.466 102.951 360.927 98.786 361.117 91.4097C360.967 86.8599 361.732 78.907 363.412 67.5508C364.017 63.137 364.683 58.8391 365.408 54.6568C366.196 50.3823 366.834 46.782 367.323 43.856C367.237 40.9396 365.456 39.0708 361.98 38.249Z" fill="#000000"/>
<path fill-rule="evenodd" clip-rule="evenodd" d="M509.403 46.6345C509.059 45.3768 508.904 44.7006 508.994 44.6113C510.13 42.8366 510.833 40.8222 511.05 38.7291C511.266 36.6355 510.99 34.5206 510.242 32.5527C508.748 28.351 506.139 25.5342 502.414 24.1027C500.159 24.4172 498.524 25.9084 497.51 28.5762C494.882 25.5939 491.874 23.728 488.485 22.9795C485.635 22.5538 482.732 22.6295 479.909 23.2027C473.769 24.3857 468.316 27.5574 463.55 32.7168C456.565 40.146 453.2 49.3945 453.453 60.4623C453.565 63.5826 454.001 66.6824 454.754 69.7128C455.482 72.4117 456.634 74.978 458.167 77.3177C459.506 79.3729 461.303 81.0913 463.42 82.3383C465.37 83.5004 467.647 83.9989 469.906 83.7596C472.246 83.5111 474.351 83.3023 476.207 83.1237C482.729 82.2883 487.219 79.7817 489.677 75.6028C488.433 80.186 487.069 83.8892 485.586 86.7123C482.899 92.064 480.326 95.608 477.868 97.3443C476.451 98.3583 475.256 99.1787 474.281 99.8048C473.102 100.686 471.856 101.476 470.554 102.166C468.958 103.041 466.755 103.39 463.944 103.215C461.34 102.191 459.246 101.871 457.663 102.255C454.41 103.034 452.736 105.105 452.639 108.468C452.449 111.193 453.447 113.585 455.633 115.646C457.349 117.366 460.157 118.692 464.059 119.623C474.636 120.835 483.737 118.541 491.363 112.738C495.09 109.92 498.266 106.445 500.733 102.484C503.187 98.7097 505.092 94.608 506.39 90.301C507.627 86.2881 508.625 82.9626 509.383 80.3248C510.268 77.5522 510.934 74.7154 511.379 71.8404C512.64 62.8404 511.981 54.4384 509.403 46.6345ZM486.649 57.9028C484.936 61.3788 482.472 64.434 479.435 66.8499C478.19 67.9051 476.763 68.7269 475.224 69.2754C473.882 69.6283 472.869 69.3997 472.181 68.5993C471.572 67.7843 471.542 66.6906 472.086 65.3038C472.758 63.8364 473.642 62.4749 474.71 61.2628C475.918 59.8633 477.381 58.7027 479.021 57.8431C480.687 56.8737 482.069 56.4762 483.157 56.6499C484.244 56.8242 485.002 56.963 485.427 57.0674C485.618 57.0795 485.809 57.0989 485.998 57.1266C486.23 57.1601 486.461 57.2052 486.689 57.2615C486.625 57.4688 486.611 57.6887 486.649 57.9028Z" fill="#000000"/>
<path fill-rule="evenodd" clip-rule="evenodd" d="M275.766 46.5252C279.185 45.8826 282.225 46.2321 284.886 47.5742C287.531 48.8368 289.767 50.8163 291.336 53.2856C294.091 57.7159 295.231 63.4753 294.759 70.5632C294.625 72.5 294.463 74.5421 294.274 76.6896C294.085 78.8414 293.869 81.0986 293.626 83.462C293.102 88.2458 292.034 92.9547 290.443 97.4991C288.751 102.344 286.376 106.925 283.389 111.103C280.319 115.451 276.047 119.152 270.572 122.208C267.29 124.047 264.297 124.955 261.592 124.932C258.988 124.968 256.993 124.716 255.606 124.176C254.264 123.681 253.159 122.699 252.513 121.427C251.548 126.219 250.67 131.037 249.879 135.882C249.193 140.743 247.97 145.514 246.231 150.108C244.579 151.482 242.684 152.537 240.644 153.219C238.448 154.099 236.04 154.308 233.724 153.821C232.634 153.664 231.589 153.28 230.659 152.692C229.728 152.104 228.933 151.327 228.326 150.411C226.997 148.602 226.149 146.486 225.862 144.263C225.42 141.141 225.646 137.232 226.54 132.537C227.854 125.575 228.98 120.19 229.918 116.382C230.779 112.588 231.336 110.143 231.589 109.046C231.698 108.529 231.804 108 231.91 107.461C232.042 106.786 232.172 106.096 232.302 105.397C233.414 100.493 234.168 96.5497 234.567 93.5673C235.033 90.482 235.475 87.8065 235.894 85.5396V85.4202C236.256 81.466 236.98 77.5531 238.055 73.7296C239.259 69.4779 240.12 66.8668 240.639 65.896C241.6 64.5116 242.941 63.4311 244.5 62.7841C246.079 62.2137 247.705 61.7812 249.36 61.4919L249.719 61.4424L252.093 61.7205C253.546 58.5736 255.656 55.7718 258.283 53.5025C260.909 51.2337 263.992 49.5498 267.325 48.5635C270.095 47.716 272.914 47.0354 275.766 46.5252ZM268.527 86.708C269.565 84.0542 270.126 81.2394 270.184 78.3919V78.4167C270.293 75.7076 270.173 73.983 269.814 73.2971C269.455 72.6112 269.021 72.3029 268.458 72.3826C267.907 72.4845 267.391 72.7257 266.961 73.0835C266.548 73.3563 266.181 73.6917 265.873 74.0776C265.669 74.3659 265.708 74.3606 265.998 74.0776C265.367 75.0246 264.85 76.0425 264.456 77.1095C264.116 78.1953 263.986 79.3356 264.072 80.4695C263.344 82.2888 261.957 84.0751 259.912 85.8279L259.178 88.5021C258.659 90.6956 258.195 92.9241 257.786 95.1876C257.377 97.4511 256.878 99.6859 256.289 101.893C257.091 102.467 257.807 103.15 258.42 103.921C262.368 99.3646 265.737 93.627 268.527 86.708Z" fill="#000000"/>
<path d="M333.329 5.03093C334.004 5.74982 334.766 6.50027 335.613 7.28275C337.752 9.10498 338.855 10.8796 338.921 12.6062C333.234 33.8837 328.727 57.4111 325.401 83.1888C325.005 86.1808 324.718 88.7938 324.538 91.0272C324.39 93.0271 324.138 95.0177 323.785 96.9919C323.657 97.9661 323.475 98.9321 323.238 99.8849C323.089 100.487 322.919 101.083 322.727 101.674C322.202 103.152 321.392 104.513 320.342 105.681C319.105 107.084 317.716 108.347 316.202 109.448C314.761 110.627 313.158 111.593 311.442 112.316C307.857 113.632 305.775 112.822 305.196 109.886C305.136 109.737 305.059 109.597 304.966 109.468C304.906 109.385 304.839 109.307 304.766 109.234C304.684 109.152 304.594 109.077 304.497 109.01C304.183 108.793 303.812 108.672 303.43 108.663C302.705 108.684 301.982 108.579 301.295 108.35C299.505 107.876 298.747 105.982 299.02 102.668C299.665 98.0855 300.32 92.563 300.986 86.1012C301.651 79.5632 302.648 72.3627 303.979 64.499C307.112 45.4452 311.863 28.0001 318.232 12.1635C318.414 11.8495 318.603 11.5024 318.801 11.1228C319.105 10.5369 319.428 9.87338 319.769 9.13168C319.913 8.79674 320.07 8.46812 320.241 8.14678C320.494 7.67011 320.776 7.20945 321.085 6.76724C321.393 6.32698 321.728 5.90467 322.089 5.50324C324.54 2.54709 327.911 1.4622 332.201 2.2471C332.255 3.27423 332.652 4.25428 333.329 5.03093Z" stroke="#000000" stroke-width="4" stroke-linejoin="round" mask="url(#path-1-outside-1_30_3337)"/>
<path d="M364.854 8.96227C363.956 8.79529 363.039 8.7584 362.13 8.85305C361.408 8.95936 360.256 9.20255 358.673 9.58359C355.237 10.8 352.804 12.7334 351.374 15.3847C350.117 17.5186 349.821 19.4787 350.486 21.2645C351.135 22.9678 352.754 24.2935 355.345 25.241C358.006 26.1759 361.255 25.9652 365.093 24.6099C368.875 22.3664 371.048 20.0617 371.614 17.6958C372.263 15.3197 371.9 13.3314 370.527 11.731C369.429 9.74281 367.538 8.82004 364.854 8.96227Z" stroke="#000000" stroke-width="4" stroke-linejoin="round" mask="url(#path-1-outside-1_30_3337)"/>
<path d="M434.155 27.652C428.943 27.3205 422.609 28.9029 415.152 32.3988C408.088 35.7555 403.312 39.3625 400.824 43.2196L400.739 42.6182C400.456 40.6299 399.753 39.1388 398.629 38.1446C396.487 36.3224 392.876 36.869 387.798 39.7848C386.675 39.3674 385.802 39.4072 385.234 39.8994C384.735 40.3965 383.682 42.2803 382.105 45.6005C381.424 47.1679 380.166 51.9167 378.334 59.8464C373.155 82.3796 371.75 95.3546 374.118 98.7714C375.241 99.815 376.616 100.551 378.109 100.909C382.965 102.191 388.142 101.711 393.64 99.467C397.052 98.0918 398.79 96.4613 398.853 94.576C398.863 94.327 398.879 94.1051 398.903 93.91C398.964 93.3969 399.073 93.0712 399.232 92.9309C399.48 92.7159 399.74 92.5149 400.011 92.3295C400.487 92.1324 400.907 91.8218 401.233 91.4247C401.449 91.2524 401.665 91.0039 401.88 90.6791C402.163 90.2534 402.447 89.6967 402.73 89.0088C402.912 88.6147 403.098 88.1899 403.289 87.7346C403.69 86.7789 404.108 85.6891 404.546 84.4659C404.913 83.5514 405.286 82.6034 405.665 81.6228C405.843 81.1612 406.023 80.6923 406.203 80.2161L406.51 79.404L406.796 78.6405L409.325 72.1787C412.318 64.3315 414.464 59.7852 415.761 58.5391C416.317 57.0358 417.278 55.715 418.54 54.7219C420.163 53.4326 421.392 53.138 422.226 53.837C423.261 54.7549 423.462 57.3397 422.83 61.5909C421.835 65.1961 421.078 68.8624 420.565 72.566C419.937 76.8177 419.048 81.5549 417.901 86.7769C417.482 89.0404 418.184 90.5316 420.006 91.2504C421.843 92.0523 424.029 92.1538 426.567 91.5538C429.308 90.9762 431.908 89.8627 434.215 88.2783C436.622 86.791 438.467 84.5523 439.463 81.9107C440.995 79.1191 442.269 76.194 443.27 73.1728C443.417 72.5811 443.569 71.9607 443.724 71.3122C443.901 70.5739 444.082 69.7992 444.267 68.9871C444.697 67.377 445.305 65.2927 446.093 62.7345C448.222 52.8827 448.538 44.9579 447.042 38.9601C445.229 31.862 440.933 28.0928 434.155 27.652Z" stroke="#000000" stroke-width="4" stroke-linejoin="round" mask="url(#path-1-outside-1_30_3337)"/>
<path d="M146.079 68.4803C142.577 67.7411 138.932 68.1236 135.662 69.574C131.861 71.0851 129.624 73.2388 128.952 76.0358C127.116 79.8831 125.421 85.3042 123.868 92.2994C120.542 106.482 118.853 118.027 118.799 126.934C118.074 131.69 119.031 135.27 121.668 137.676C122.768 138.653 124.09 139.351 125.52 139.709C126.842 140.148 128.246 140.287 129.63 140.117C130.919 140.031 132.169 139.646 133.282 138.993C134.26 138.528 135.025 137.711 135.422 136.707C135.782 135.759 136.839 135.121 138.596 134.793C139.309 134.614 140.052 134.385 140.835 134.112C143.569 133.158 145.031 128.993 145.221 121.616C145.065 117.067 145.828 109.122 147.511 97.7821C148.119 93.3683 148.784 89.0705 149.506 84.8882C150.298 80.6137 150.938 77.0134 151.427 74.0873C151.34 71.1676 149.558 69.2987 146.079 68.4803Z" stroke="#000000" stroke-width="4" stroke-linejoin="round" mask="url(#path-1-outside-1_30_3337)"/>
<path d="M148.953 39.1737C151.64 39.0446 153.532 39.964 154.63 41.9323C156.004 43.5361 156.366 45.5277 155.717 47.9067C155.149 50.2765 152.973 52.5807 149.192 54.8209C145.357 56.1762 142.109 56.3868 139.449 55.4524C136.854 54.5078 135.233 53.1826 134.584 51.4759C133.922 49.6896 134.22 47.7295 135.478 45.5957C136.907 42.9449 139.339 41.011 142.771 39.795C143.477 39.6237 144.097 39.4805 144.632 39.365C145.298 39.2213 145.832 39.1213 146.233 39.064C147.141 38.9703 148.056 39.0072 148.953 39.1737Z" stroke="#000000" stroke-width="4" stroke-linejoin="round" mask="url(#path-1-outside-1_30_3337)"/>
<path d="M120.416 76.1154C121.186 74.9523 121.673 73.6267 121.838 72.2432C121.974 70.8899 121.737 69.5259 121.154 68.2964C120.877 67.6998 120.455 67.1799 119.928 66.7838C119.681 66.5984 119.415 66.4426 119.134 66.3188C118.978 66.2504 118.818 66.1916 118.654 66.1431C118.557 66.114 118.457 66.0887 118.357 66.0669L118.289 66.0528L118.216 66.0392L118.131 66.0251C116.96 65.679 115.734 65.5611 114.519 65.6771L112.828 65.9106C112.057 66.0067 111.279 66.0334 110.503 65.9902C110.125 66.0873 109.758 66.1824 109.403 66.2761C109.028 66.3751 108.667 66.4717 108.318 66.5669C108.114 66.6217 107.916 66.6766 107.721 66.7304L107.362 66.8304L106.717 67.0139L105.305 67.4566C105.04 67.5372 104.74 67.6362 104.405 67.7542C104.141 67.8469 103.854 67.9517 103.543 68.0677C103.676 67.7149 103.884 67.394 104.152 67.1285C104.446 66.9198 104.726 66.2683 104.98 65.1747L107.789 56.3271C108.358 54.5331 108.812 53.121 109.161 52.0973C109.527 51.1328 109.839 50.1488 110.094 49.1499C110.143 49.0047 110.19 48.8591 110.237 48.713C110.284 48.5606 110.331 48.4077 110.376 48.2543L110.441 48.0271L110.481 47.8844C110.61 47.4184 110.726 46.9485 110.827 46.4757C111.09 45.4549 111.374 43.9851 111.681 42.0668C111.831 41.1013 111.763 40.1149 111.481 39.179C111.2 38.2437 110.712 37.3825 110.054 36.6588C108.808 35.0807 107.149 33.8769 105.26 33.1794C103.571 32.3979 101.708 32.0639 99.8514 32.21C98.0624 32.2993 96.9648 32.944 96.5589 34.1434C95.5987 35.0642 94.5059 35.8365 93.3161 36.435C92.4616 36.7962 91.7663 37.0976 91.2309 37.3393C90.2331 37.8864 89.4429 39.2616 88.8612 41.4653L87.9282 42.6978L87.878 43.1948C85.5248 48.1921 83.995 53.5341 83.3485 59.0163C82.9758 61.6011 82.718 64.1277 82.5748 66.5965C82.5071 67.7712 82.4374 68.9371 82.3663 70.0938L82.2835 71.435C82.2318 72.2559 82.1792 73.0718 82.1261 73.8834C81.5039 73.9145 80.8974 74.0844 80.3498 74.3805C80.2957 74.4451 80.2392 74.5077 80.1807 74.5684C80.1422 74.6082 80.1027 74.647 80.0618 74.6849L79.9853 74.7538L79.921 74.8082C79.771 74.9072 78.9232 75.2751 77.3715 75.8964C75.4826 76.7289 73.6498 77.6823 71.8837 78.7497C70.7461 79.4123 68.9419 80.2773 66.4709 81.3442C64.4251 82.5305 63.1482 83.9339 62.639 85.5542C62.1309 86.9852 62.0866 88.5394 62.5124 89.9966C62.9387 91.4543 63.8137 92.7411 65.0141 93.6765C66.0412 94.5906 67.3902 95.0624 68.7656 94.9886H68.8854C70.3889 94.7439 71.8189 94.1682 73.071 93.3037C73.3925 93.0814 73.8588 92.8868 74.4702 92.7198C74.9983 92.5756 75.6346 92.4523 76.3786 92.3494C74.1336 109.561 73.2308 125.241 73.6697 139.391C73.6147 139.696 73.603 140.007 73.6337 140.313C73.6415 140.394 73.6527 140.475 73.6668 140.555L73.6741 140.596C73.6834 140.644 73.6931 140.692 73.7043 140.74C73.7224 140.816 73.7428 140.892 73.7662 140.967C73.8734 141.313 74.0356 141.638 74.2466 141.931C74.3465 142.07 74.4571 142.201 74.5779 142.323C75.3462 143.116 76.7211 143.863 78.7035 144.565C81.0367 145.303 83.5 145.542 85.9326 145.266C86.2498 145.049 86.5976 144.882 86.9655 144.769C87.669 144.594 88.335 144.292 88.9308 143.88C90.5605 142.673 92.5098 136.155 94.7777 124.325C95.5129 120.793 96.1862 117.148 96.7986 113.39C97.4071 109.552 97.9957 105.877 98.5647 102.365C99.203 98.7661 99.7618 95.4643 100.241 92.4586C100.783 89.3569 101.322 86.7905 101.857 84.7591V84.6396L102.461 83.6955C105.411 83.1189 110.247 81.3806 116.969 78.4813C117.678 78.3516 118.352 78.0735 118.946 77.6658C119.232 77.4697 119.496 77.2454 119.735 76.9974C119.841 76.8872 119.943 76.7721 120.039 76.6532C120.176 76.4828 120.302 76.3032 120.416 76.1154Z" stroke="#000000" stroke-width="4" stroke-linejoin="round" mask="url(#path-1-outside-1_30_3337)"/>
<path d="M39.495 101.898C46.2769 105.274 51.1645 108.837 54.1578 112.585C58.242 117.731 59.6121 123.908 58.2684 131.115C58.9904 133.309 57.3773 136.394 53.4295 140.37C52.4979 141.315 51.6746 142.165 50.9599 142.92C48.0181 146.043 44.4728 148.54 40.5377 150.262C36.5582 152.194 32.3157 153.534 27.9459 154.238C23.8452 154.924 19.663 154.971 15.5481 154.378C11.6169 153.788 8.39555 152.444 5.88452 150.346C2.92769 147.984 1.65902 145.384 2.07802 142.548C2.31333 141.385 2.95059 140.342 3.8792 139.6C4.75031 138.818 5.93275 138.487 7.42602 138.606C7.93514 138.585 8.35657 138.482 8.68884 138.301C8.9914 138.136 9.21989 137.906 9.3719 137.611C9.55314 137.287 9.71684 136.954 9.86202 136.613C10.0296 136.219 10.1724 135.816 10.2898 135.405C10.3448 135.173 10.4062 134.944 10.4739 134.716L10.5105 134.595L10.5461 134.48L10.5904 134.341L10.6333 134.215C10.7629 133.833 10.9095 133.457 11.0732 133.088C11.2072 132.717 11.4464 132.391 11.7611 132.152C12.0764 131.912 12.4539 131.768 12.8491 131.737C27.0475 130.159 34.225 127.889 34.3814 124.927C33.1746 124.127 31.845 123.527 30.4453 123.152C29.5503 122.875 28.6397 122.601 27.7145 122.329C27.1343 122.158 26.5477 121.989 25.9552 121.82C22.1936 120.716 19.5744 119.287 18.0977 117.531C16.4543 116.944 15.0176 115.186 13.7869 112.257C13.4001 111.405 13.0941 110.52 12.8729 109.614L12.8378 109.466L12.8135 109.36L12.7945 109.275C12.774 109.181 12.754 109.087 12.735 108.993L12.716 108.895C12.6868 108.745 12.6605 108.594 12.6361 108.443C12.6196 108.341 12.604 108.238 12.5899 108.136C12.3838 106.783 12.4398 105.403 12.7545 104.07C12.0725 100.985 13.516 97.272 17.0848 92.9309C18.2482 91.5354 19.4993 90.2156 20.8314 88.9792C22.3446 87.5409 24.7114 86.025 27.9308 84.4309C31.0358 82.8849 34.2713 81.6126 37.5993 80.6287C40.505 79.6749 43.5086 79.0497 46.5546 78.7647C49.3117 78.5395 51.3306 78.9089 52.611 79.8729C54.0136 80.8704 55.1659 82.1767 55.9785 83.6907C56.8974 85.1328 57.3885 86.8041 57.3953 88.5123C57.2589 92.2033 54.6368 95.1012 49.528 97.2055C42.9892 99.0879 39.8975 100.414 40.2536 101.182C40.2785 101.341 40.0241 101.579 39.495 101.898Z" stroke="#000000" stroke-width="4" stroke-linejoin="round" mask="url(#path-1-outside-1_30_3337)"/>
<path fill-rule="evenodd" clip-rule="evenodd" d="M204.898 56.4465C208.317 55.8005 211.358 56.1514 214.018 57.5004C216.666 58.761 218.905 60.7381 220.479 63.2064C223.236 67.6367 224.377 73.398 223.901 80.4894C223.632 84.363 223.255 88.6608 222.769 93.3829C222.244 98.1685 221.176 102.879 219.586 107.425C217.882 112.27 215.495 116.849 212.497 121.025C209.427 125.375 205.155 129.077 199.68 132.129C196.417 133.975 193.432 134.883 190.725 134.853C188.121 134.896 186.125 134.646 184.738 134.102C183.397 133.603 182.293 132.62 181.645 131.348C180.68 136.14 179.803 140.958 179.011 145.803C178.325 150.664 177.102 155.435 175.364 160.029C173.714 161.403 171.82 162.459 169.781 163.14C167.584 164.022 165.173 164.231 162.857 163.742C161.766 163.586 160.721 163.202 159.79 162.614C159.562 162.47 159.341 162.314 159.13 162.147C158.897 161.964 158.675 161.767 158.465 161.559C158.254 161.349 158.055 161.129 157.87 160.897C157.725 160.715 157.587 160.527 157.459 160.332C156.129 158.524 155.282 156.41 154.994 154.188C154.552 151.067 154.779 147.157 155.677 142.458C156.988 135.496 158.112 130.112 159.05 126.308C159.427 124.645 159.746 123.241 160.007 122.097C160.341 120.628 160.579 119.586 160.721 118.972C160.967 117.792 161.205 116.574 161.435 115.318C162.552 110.414 163.307 106.47 163.7 103.488C164.165 100.403 164.608 97.7287 165.027 95.4658V95.3463C165.388 91.3902 166.111 87.4754 167.187 83.6504C168.391 79.4026 169.252 76.7911 169.771 75.8168C170.732 74.4324 172.073 73.3524 173.633 72.7054C175.212 72.1345 176.837 71.702 178.492 71.4127L178.851 71.3632L181.226 71.6413C182.679 68.4954 184.789 65.6941 187.416 63.4263C190.042 61.1579 193.125 59.475 196.457 58.4891C199.227 57.6402 202.046 56.9577 204.898 56.4465ZM197.664 96.6336C198.699 93.9794 199.257 91.1645 199.316 88.3181V88.338C199.426 85.6289 199.316 83.9242 198.956 83.2378C198.597 82.5519 198.163 82.249 197.6 82.3281C197.048 82.4262 196.532 82.666 196.103 83.0242C195.691 83.297 195.323 83.6324 195.015 84.0183C194.811 84.3115 194.851 84.3018 195.14 84.0183C194.959 84.2911 194.787 84.5697 194.625 84.8532C194.404 85.2391 194.202 85.6352 194.017 86.0396C193.867 86.3677 193.729 86.7017 193.604 87.0405C193.263 88.1263 193.133 89.2666 193.219 90.4005C192.491 92.2198 191.104 94.0061 189.058 95.7589L188.325 98.4331C187.796 100.63 187.327 102.859 186.918 105.119C186.509 107.379 186.01 109.612 185.421 111.819C186.22 112.396 186.937 113.078 187.552 113.847C191.5 109.297 194.871 103.559 197.664 96.6336Z" stroke="#000000" stroke-width="4" stroke-linejoin="round" mask="url(#path-1-outside-1_30_3337)"/>
<path d="M361.98 38.249C358.479 37.5097 354.833 37.8922 351.563 39.3426C347.758 40.8537 345.52 43.0075 344.848 45.8044C343.019 49.6518 341.326 55.0728 339.769 62.0681C336.443 76.2508 334.752 87.7958 334.695 96.7031C333.97 101.462 334.927 105.042 337.564 107.445C338.665 108.422 339.986 109.119 341.416 109.478C342.74 109.917 344.146 110.056 345.532 109.885C346.82 109.799 348.071 109.414 349.183 108.762C350.157 108.303 350.921 107.495 351.324 106.5C351.68 105.553 352.735 104.915 354.492 104.587C355.205 104.407 355.953 104.179 356.732 103.906C359.466 102.951 360.927 98.786 361.117 91.4097C360.967 86.8599 361.732 78.907 363.412 67.5508C364.017 63.137 364.683 58.8391 365.408 54.6568C366.196 50.3823 366.834 46.782 367.323 43.856C367.237 40.9396 365.456 39.0708 361.98 38.249Z" stroke="#000000" stroke-width="4" stroke-linejoin="round" mask="url(#path-1-outside-1_30_3337)"/>
<path fill-rule="evenodd" clip-rule="evenodd" d="M509.403 46.6345C509.059 45.3768 508.904 44.7006 508.994 44.6113C510.13 42.8366 510.833 40.8222 511.05 38.7291C511.266 36.6355 510.99 34.5206 510.242 32.5527C508.748 28.351 506.139 25.5342 502.414 24.1027C500.159 24.4172 498.524 25.9084 497.51 28.5762C494.882 25.5939 491.874 23.728 488.485 22.9795C485.635 22.5538 482.732 22.6295 479.909 23.2027C473.769 24.3857 468.316 27.5574 463.55 32.7168C456.565 40.146 453.2 49.3945 453.453 60.4623C453.565 63.5826 454.001 66.6824 454.754 69.7128C455.482 72.4117 456.634 74.978 458.167 77.3177C459.506 79.3729 461.303 81.0913 463.42 82.3383C465.37 83.5004 467.647 83.9989 469.906 83.7596C472.246 83.5111 474.351 83.3023 476.207 83.1237C482.729 82.2883 487.219 79.7817 489.677 75.6028C488.433 80.186 487.069 83.8892 485.586 86.7123C482.899 92.064 480.326 95.608 477.868 97.3443C476.451 98.3583 475.256 99.1787 474.281 99.8048C473.102 100.686 471.856 101.476 470.554 102.166C468.958 103.041 466.755 103.39 463.944 103.215C461.34 102.191 459.246 101.871 457.663 102.255C454.41 103.034 452.736 105.105 452.639 108.468C452.449 111.193 453.447 113.585 455.633 115.646C457.349 117.366 460.157 118.692 464.059 119.623C474.636 120.835 483.737 118.541 491.363 112.738C495.09 109.92 498.266 106.445 500.733 102.484C503.187 98.7097 505.092 94.608 506.39 90.301C507.627 86.2881 508.625 82.9626 509.383 80.3248C510.268 77.5522 510.934 74.7154 511.379 71.8404C512.64 62.8404 511.981 54.4384 509.403 46.6345ZM486.649 57.9028C484.936 61.3788 482.472 64.434 479.435 66.8499C478.19 67.9051 476.763 68.7269 475.224 69.2754C473.882 69.6283 472.869 69.3997 472.181 68.5993C471.572 67.7843 471.542 66.6906 472.086 65.3038C472.758 63.8364 473.642 62.4749 474.71 61.2628C475.918 59.8633 477.381 58.7027 479.021 57.8431C480.687 56.8737 482.069 56.4762 483.157 56.6499C484.244 56.8242 485.002 56.963 485.427 57.0674C485.618 57.0795 485.809 57.0989 485.998 57.1266C486.23 57.1601 486.461 57.2052 486.689 57.2615C486.625 57.4688 486.611 57.6887 486.649 57.9028Z" stroke="#000000" stroke-width="4" stroke-linejoin="round" mask="url(#path-1-outside-1_30_3337)"/>
<path fill-rule="evenodd" clip-rule="evenodd" d="M275.766 46.5252C279.185 45.8826 282.225 46.2321 284.886 47.5742C287.531 48.8368 289.767 50.8163 291.336 53.2856C294.091 57.7159 295.231 63.4753 294.759 70.5632C294.625 72.5 294.463 74.5421 294.274 76.6896C294.085 78.8414 293.869 81.0986 293.626 83.462C293.102 88.2458 292.034 92.9547 290.443 97.4991C288.751 102.344 286.376 106.925 283.389 111.103C280.319 115.451 276.047 119.152 270.572 122.208C267.29 124.047 264.297 124.955 261.592 124.932C258.988 124.968 256.993 124.716 255.606 124.176C254.264 123.681 253.159 122.699 252.513 121.427C251.548 126.219 250.67 131.037 249.879 135.882C249.193 140.743 247.97 145.514 246.231 150.108C244.579 151.482 242.684 152.537 240.644 153.219C238.448 154.099 236.04 154.308 233.724 153.821C232.634 153.664 231.589 153.28 230.659 152.692C229.728 152.104 228.933 151.327 228.326 150.411C226.997 148.602 226.149 146.486 225.862 144.263C225.42 141.141 225.646 137.232 226.54 132.537C227.854 125.575 228.98 120.19 229.918 116.382C230.779 112.588 231.336 110.143 231.589 109.046C231.698 108.529 231.804 108 231.91 107.461C232.042 106.786 232.172 106.096 232.302 105.397C233.414 100.493 234.168 96.5497 234.567 93.5673C235.033 90.482 235.475 87.8065 235.894 85.5396V85.4202C236.256 81.466 236.98 77.5531 238.055 73.7296C239.259 69.4779 240.12 66.8668 240.639 65.896C241.6 64.5116 242.941 63.4311 244.5 62.7841C246.079 62.2137 247.705 61.7812 249.36 61.4919L249.719 61.4424L252.093 61.7205C253.546 58.5736 255.656 55.7718 258.283 53.5025C260.909 51.2337 263.992 49.5498 267.325 48.5635C270.095 47.716 272.914 47.0354 275.766 46.5252ZM268.527 86.708C269.565 84.0542 270.126 81.2394 270.184 78.3919V78.4167C270.293 75.7076 270.173 73.983 269.814 73.2971C269.455 72.6112 269.021 72.3029 268.458 72.3826C267.907 72.4845 267.391 72.7257 266.961 73.0835C266.548 73.3563 266.181 73.6917 265.873 74.0776C265.669 74.3659 265.708 74.3606 265.998 74.0776C265.367 75.0246 264.85 76.0425 264.456 77.1095C264.116 78.1953 263.986 79.3356 264.072 80.4695C263.344 82.2888 261.957 84.0751 259.912 85.8279L259.178 88.5021C258.659 90.6956 258.195 92.9241 257.786 95.1876C257.377 97.4511 256.878 99.6859 256.289 101.893C257.091 102.467 257.807 103.15 258.42 103.921C262.368 99.3646 265.737 93.627 268.527 86.708Z" stroke="#000000" stroke-width="4" stroke-linejoin="round" mask="url(#path-1-outside-1_30_3337)"/>
</svg>
